<svg width="72" height="72" viewBox="0 0 72 72" fill="none" xmlns="http://www.w3.org/2000/svg">
<circle cx="36" cy="36" r="36" fill="#01080C"/>
<path d="M11 54.5529C11 58.1139 13.8865 61 17.4471 61H54.5527C58.1139 61 61 58.1135 61 54.5529V17.4473C61 13.8861 58.1135 11 54.5529 11H17.4473C13.8861 11 11 13.8865 11 17.4471V54.5527V54.5529Z" fill="#563D7C"/>
<path d="M31.735 33.1168V26.0361H37.9676C38.5613 26.0361 39.1336 26.0855 39.6848 26.1846C40.2359 26.2834 40.7236 26.46 41.1477 26.7145C41.5715 26.9689 41.9107 27.3223 42.1652 27.7744C42.4195 28.2268 42.5469 28.8063 42.5469 29.5127C42.5469 30.7848 42.1652 31.7035 41.402 32.2688C40.6389 32.8342 39.6637 33.1168 38.4764 33.1168H31.735ZM25.0781 20.8633V51.1367H39.7484C41.1053 51.1367 42.4268 50.9672 43.7129 50.6279C44.999 50.2887 46.1438 49.7658 47.1473 49.0592C48.1506 48.3525 48.9492 47.4408 49.5428 46.3244C50.1365 45.2078 50.4332 43.8863 50.4332 42.36C50.4332 40.466 49.9738 38.8479 49.0553 37.5053C48.1365 36.1625 46.7443 35.2227 44.8787 34.6855C46.2355 34.0355 47.2604 33.2016 47.9529 32.184C48.6453 31.1664 48.9916 29.8945 48.9916 28.368C48.9916 26.9547 48.7584 25.7676 48.292 24.8064C47.8256 23.8455 47.1684 23.0752 46.3203 22.4957C45.4725 21.9162 44.4549 21.4992 43.2676 21.2449C42.0805 20.9904 40.766 20.8633 39.3244 20.8633H25.0781ZM31.735 45.9639V37.6535H38.9852C40.4268 37.6535 41.5857 37.9855 42.4621 38.65C43.3383 39.3143 43.7766 40.4236 43.7766 41.9783C43.7766 42.7699 43.6422 43.4199 43.3736 43.9287C43.1051 44.4375 42.7447 44.8404 42.2924 45.1371C41.8402 45.434 41.3172 45.6459 40.7236 45.7732C40.1299 45.9002 39.5082 45.9639 38.858 45.9639H31.735Z" fill="white"/>
</svg>
