<svg width="72" height="72" viewBox="0 0 72 72" fill="none" xmlns="http://www.w3.org/2000/svg">
<circle cx="36" cy="36" r="36" fill="#01080C"/>
<path d="M17.334 51.1668L35.107 17.8421C35.4815 17.1398 36.4942 17.1526 36.85 17.8654L43.0007 30.1668L17.334 51.1668Z" fill="#FF8F00"/>
<path d="M17.334 51.1573L23.8043 11.2584C23.9735 10.2143 25.3758 9.98794 25.8658 10.9259L38.334 34.8239L17.334 51.1573Z" fill="#FFA000"/>
<path d="M17.3418 51.1503L17.5751 50.9672L38.0256 34.236L32.2576 23.1807L17.3418 51.1503Z" fill="#FF6F00"/>
<path d="M17.334 51.1666L48.4443 21.1681C49.0965 20.5392 50.185 20.9102 50.318 21.8062L54.6673 51.1666L37.1673 61.3667C36.4568 61.7657 35.59 61.7657 34.8795 61.3667L17.334 51.1666Z" fill="#FFC400"/>
</svg>
