<svg width="72" height="72" viewBox="0 0 72 72" fill="none" xmlns="http://www.w3.org/2000/svg">
<circle cx="36" cy="36" r="36" fill="#01080C"/>
<path d="M63.7696 42.1992C63.1467 38.3162 60.6147 35.0561 53.1156 32.0144C50.5108 30.8171 47.6066 29.9597 46.741 27.9858C46.4336 26.8371 46.3932 26.1899 46.5873 25.4942C47.1455 23.2372 49.8394 22.5334 51.975 23.1806C53.3502 23.6417 54.6527 24.7015 55.4374 26.3921C59.11 24.0139 59.1019 24.03 61.6663 22.396C60.7279 20.9398 60.2264 20.2683 59.6116 19.6455C57.4031 17.1782 54.3938 15.9081 49.5805 16.0052C48.7473 16.1103 47.906 16.2235 47.0727 16.3288C44.6702 16.9355 42.3808 18.1975 41.0379 19.8882C37.0093 24.4588 38.158 32.4593 43.0603 35.7519C47.8898 39.376 54.9843 40.2011 55.8904 43.5907C56.7721 47.7406 52.8407 49.0834 48.9333 48.6062C46.0534 48.0076 44.4518 46.5434 42.7205 43.8819C39.5333 45.7263 39.5333 45.7263 36.257 47.6112C37.0336 49.31 37.8506 50.0785 39.1531 51.5508C45.3174 57.8041 60.7441 57.4967 63.5108 48.0319C63.624 47.7082 64.3683 45.5402 63.7696 42.1992ZM31.8966 16.5067H23.9365C23.9365 23.3828 23.9042 30.2104 23.9042 37.0866C23.9042 41.463 24.1307 45.4755 23.4188 46.7051C22.2539 49.1238 19.2365 48.8246 17.8613 48.3553C16.4618 47.6677 15.7499 46.6888 14.9248 45.3056C14.6983 44.9092 14.5284 44.6018 14.4717 44.5775C12.3118 45.8961 10.1599 47.2227 8 48.5414C9.076 50.7499 10.6615 52.6671 12.692 53.9128C15.7256 55.733 19.8027 56.2912 24.066 55.3123C26.8407 54.5034 29.2352 52.8289 30.4891 50.2807C32.3011 46.9397 31.9128 42.8949 31.8966 38.4213C31.9371 31.1245 31.8966 23.8277 31.8966 16.5067Z" fill="#0077FF"/>
</svg>
