<svg width="72" height="72" viewBox="0 0 72 72" fill="none" xmlns="http://www.w3.org/2000/svg">
<circle cx="36" cy="36" r="36" fill="#01080C"/>
<path d="M34.3347 11.0119C32.2225 11.0119 30.1784 11.206 28.3989 11.5346C23.1244 12.4453 22.1985 14.338 22.1985 17.9214V22.6135H34.5993V24.1775H17.5813C14.0182 24.1775 10.8559 26.3275 9.86589 30.3663C8.74366 35.0584 8.67953 37.9251 9.86589 42.8112C10.7236 46.4619 12.8358 49 16.4631 49H20.7516V43.3972C20.7516 39.3585 24.3147 35.7751 28.467 35.7751H40.7996C44.2305 35.7751 47 32.9717 47 29.5189V17.8541C47 14.532 44.1623 12.0533 40.7996 11.4673C38.6193 11.1426 36.4429 10.9486 34.3347 11.0119ZM27.6053 14.726C28.8598 14.726 29.9139 15.7674 29.9139 17.0701C29.9139 18.3728 28.8598 19.4141 27.6053 19.4141C26.3508 19.4141 25.2967 18.3728 25.2967 17.0701C25.2967 15.7674 26.2867 14.726 27.6053 14.726Z" fill="url(#paint0_linear_1905_2261)"/>
<path d="M48.8935 24V29.5086C48.8935 33.8235 45.1867 37.4045 40.9393 37.4045H28.3363C24.8999 37.4045 22 40.3241 22 43.776V55.6561C22 59.0395 24.9654 61.0316 28.3363 62.0277C32.3134 63.2213 36.1553 63.423 41.0089 62.0277C44.175 61.1002 47.3452 59.3057 47.3452 55.6561V50.8775H34.6685V49.2846H53.6775C57.3187 49.2846 58.7318 46.7642 60.0138 42.9816C61.3613 39.0659 61.2958 35.3518 60.0138 30.307C59.1373 26.722 57.3842 24.004 53.6775 24.004L48.8935 24ZM41.7462 54.0632C43.0282 54.0632 44.1054 55.1238 44.1054 56.4505C44.1054 57.7773 43.0282 58.8379 41.7462 58.8379C40.4642 58.8379 39.387 57.7773 39.387 56.4505C39.387 55.1238 40.4683 54.0632 41.7462 54.0632Z" fill="url(#paint1_linear_1905_2261)"/>
<path opacity="0.444" d="M43.6048 44.2024C43.6048 45.3551 38.7785 46.2949 32.8385 46.2949C26.8985 46.2949 22.0723 45.3551 22.0723 44.2024C22.0723 43.0497 26.8985 42.1099 32.8385 42.1099C38.7785 42.1099 43.6048 43.0471 43.6048 44.2024Z" fill="url(#paint2_radial_1905_2261)"/>
<defs>
<linearGradient id="paint0_linear_1905_2261" x1="7.63275" y1="12.3997" x2="35.9138" y2="36.7911" gradientUnits="userSpaceOnUse">
<stop stop-color="#5CA0D5"/>
<stop offset="1" stop-color="#316A99"/>
</linearGradient>
<linearGradient id="paint1_linear_1905_2261" x1="47.3249" y1="51.8896" x2="37.0632" y2="37.2864" gradientUnits="userSpaceOnUse">
<stop stop-color="#FFD43E"/>
<stop offset="1" stop-color="#FFE975"/>
</linearGradient>
<radialGradient id="paint2_radial_1905_2261" cx="0" cy="0" r="1" gradientUnits="userSpaceOnUse" gradientTransform="translate(32.8309 43.8509) rotate(-90) scale(2.08457 9.16468)">
<stop stop-color="#B8B8B8" stop-opacity="0.498"/>
<stop offset="1" stop-color="#7F8080" stop-opacity="0"/>
</radialGradient>
</defs>
</svg>
