<svg width="72" height="72" viewBox="0 0 72 72" fill="none" xmlns="http://www.w3.org/2000/svg">
<circle cx="36" cy="36" r="36" fill="#01080C"/>
<g clip-path="url(#clip0_1905_2229)">
<path d="M36.0002 41.0394C38.9537 41.0394 41.348 38.6451 41.348 35.6916C41.348 32.7381 38.9537 30.3438 36.0002 30.3438C33.0466 30.3438 30.6523 32.7381 30.6523 35.6916C30.6523 38.6451 33.0466 41.0394 36.0002 41.0394Z" fill="#61DAFB"/>
<path d="M36.0003 46.6479C51.8485 46.6479 64.696 41.7425 64.696 35.6914C64.696 29.6403 51.8485 24.7349 36.0003 24.7349C20.1522 24.7349 7.30469 29.6403 7.30469 35.6914C7.30469 41.7425 20.1522 46.6479 36.0003 46.6479Z" stroke="#61DAFB"/>
<path d="M26.5112 41.1697C34.4353 54.8947 45.1072 63.5682 50.3477 60.5427C55.5881 57.5171 53.4125 43.9381 45.4885 30.2132C37.5644 16.4883 26.8924 7.81476 21.652 10.8403C16.4116 13.8659 18.5871 27.4448 26.5112 41.1697Z" stroke="#61DAFB"/>
<path d="M26.5109 30.2132C18.5868 43.9382 16.4112 57.5171 21.6517 60.5427C26.8921 63.5682 37.564 54.8947 45.4881 41.1698C53.4122 27.4448 55.5877 13.8659 50.3473 10.8403C45.1069 7.81478 34.4349 16.4883 26.5109 30.2132Z" stroke="#61DAFB"/>
</g>
<defs>
<clipPath id="clip0_1905_2229">
<rect width="60" height="53.383" fill="white" transform="translate(6 9)"/>
</clipPath>
</defs>
</svg>
