<svg width="72" height="72" viewBox="0 0 72 72" fill="none" xmlns="http://www.w3.org/2000/svg">
<circle cx="36" cy="36" r="36" fill="#01080C"/>
<g clip-path="url(#clip0_1905_2239)">
<path d="M46.8021 46.4416C48.8686 46.2277 50.4364 44.4462 50.3651 42.3081C50.294 40.1703 48.5123 38.4598 46.3744 38.4598H46.232C44.0227 38.5312 42.3125 40.384 42.3838 42.5931C42.4551 43.6622 42.8825 44.5886 43.5239 45.2299C41.101 50.0048 37.3954 53.4967 31.837 56.4186C28.06 58.414 24.1407 59.1267 20.2213 58.6279C17.0145 58.2003 14.5203 56.7751 12.9523 54.4231C10.672 50.9312 10.4583 47.1541 12.3824 43.3771C13.7365 40.669 15.8741 38.6736 17.2282 37.6758C16.9432 36.7494 16.5155 35.1817 16.3018 34.0415C5.96869 41.5243 7.03772 51.6439 10.1733 56.4186C12.5248 59.982 17.2995 62.1912 22.5729 62.1912C23.9981 62.1912 25.4232 62.0485 26.8486 61.6924C35.9702 59.9107 42.8827 54.4944 46.8021 46.4416V46.4416ZM59.3443 37.6048C53.9283 31.2621 45.947 27.7702 36.8253 27.7702H35.6852C35.0438 26.4874 33.6898 25.6321 32.1933 25.6321H32.0507C29.8417 25.7034 28.1316 27.5563 28.2027 29.7656C28.274 31.9035 30.0555 33.6139 32.1933 33.6139H32.3357C33.9035 33.5426 35.2576 32.5448 35.8276 31.1908H37.1104C42.5264 31.1908 47.6572 32.7586 52.2894 35.823C55.8524 38.1748 58.4179 41.2393 59.8431 44.9449C61.0545 47.9381 60.9832 50.8599 59.7005 53.3543C57.7052 57.1313 54.356 59.198 49.9377 59.198C47.0871 59.198 44.3792 58.3427 42.9538 57.7013C42.1701 58.414 40.7447 59.5541 39.747 60.267C42.8114 61.6922 45.947 62.4762 48.9399 62.4762C55.7811 62.4762 60.8408 58.699 62.7649 54.9221C64.8315 50.7886 64.6888 43.6622 59.3443 37.6048V37.6048ZM23.143 47.6528C23.2143 49.7909 24.9958 51.5011 27.1336 51.5011H27.2762C29.4854 51.43 31.1956 49.5769 31.1243 47.3678C31.0532 45.2297 29.2715 43.5195 27.1336 43.5195H26.9912C26.8486 43.5195 26.6347 43.5195 26.4925 43.5906C23.5706 38.7447 22.3592 33.4713 22.7868 27.77C23.0717 23.4941 24.497 19.7882 26.9912 16.7238C29.0577 14.0869 33.0484 12.8042 35.7565 12.7331C43.3102 12.5905 46.5168 21.9974 46.7308 25.7745C47.6572 25.9883 49.225 26.4872 50.294 26.8436C49.4387 15.2988 42.3125 9.3125 35.4715 9.3125C29.0577 9.3125 23.143 13.9448 20.7912 20.7862C17.5132 29.908 19.6511 38.6736 23.6417 45.5863C23.2856 46.085 23.0717 46.869 23.143 47.653V47.6528Z" fill="#764ABC"/>
</g>
<defs>
<clipPath id="clip0_1905_2239">
<rect width="56" height="56" fill="white" transform="translate(8 8)"/>
</clipPath>
</defs>
</svg>
