<svg width="20" height="20" viewBox="0 0 20 20" xmlns="http://www.w3.org/2000/svg"><path d="M7.17095 9.17386H5.44141V7.41363H7.17095C7.17095 7.41363 8.19368 7.38977 8.19368 8.29432C8.19368 9.19886 7.17095 9.17386 7.17095 9.17386Z"/><path d="M8.49482 11.4161C8.49482 12.4945 7.27663 12.4672 7.27663 12.4672H5.44141V10.3672H7.27322C7.27322 10.3672 8.49482 10.3411 8.49482 11.4161Z"/><path d="M13.4432 9.18977C12.8193 9.18977 12.3068 9.65682 12.2045 10.3886H14.6818C14.5841 9.65909 14.0659 9.18977 13.4432 9.18977ZM13.4432 9.18977C12.8193 9.18977 12.3068 9.65682 12.2045 10.3886H14.6818C14.5841 9.65909 14.0659 9.18977 13.4432 9.18977ZM17.2727 0H2.72727C2.00396 0 1.31026 0.287337 0.7988 0.7988C0.287337 1.31026 0 2.00396 0 2.72727L0 17.2727C0 17.996 0.287337 18.6897 0.7988 19.2012C1.31026 19.7127 2.00396 20 2.72727 20H17.2727C17.996 20 18.6897 19.7127 19.2012 19.2012C19.7127 18.6897 20 17.996 20 17.2727V2.72727C20 2.00396 19.7127 1.31026 19.2012 0.7988C18.6897 0.287337 17.996 0 17.2727 0V0ZM11.8705 6.59091H15V7.37045H11.8705V6.59091ZM8.88523 13.492C8.45455 13.7045 7.91364 13.7716 7.40796 13.7716H3.75V6.08864H7.77159C8.26932 6.08864 9.81023 6.38523 9.81705 7.86591C9.81705 8.88864 9.24886 9.35682 8.75909 9.58182C8.75909 9.58182 10.0364 9.96136 10.1386 11.0909C10.2409 12.2205 10.0386 12.9227 8.88523 13.492ZM16.233 11.3727H12.2045C12.1659 12.2602 12.8148 12.7898 13.5523 12.7898C13.8089 12.7903 14.0608 12.721 14.281 12.5893C14.5012 12.4576 14.6814 12.2684 14.8023 12.042H16.1216C15.7591 13.3625 14.6966 13.9125 13.4409 13.9125C11.7966 13.9125 10.6273 12.5943 10.6273 10.967C10.6273 9.33977 11.8875 8.02046 13.4409 8.02046C14.9943 8.02046 16.25 9.33977 16.25 10.967C16.25 11.108 16.25 11.242 16.233 11.3727ZM13.4432 9.18977C12.8193 9.18977 12.3068 9.65682 12.2045 10.3886H14.6818C14.5841 9.65909 14.0659 9.18977 13.4432 9.18977Z"/></svg>
