<svg width="20" height="20" viewBox="0 0 20 20" fill="none" xmlns="http://www.w3.org/2000/svg"><g clip-path="url(#clip0_549_5613)"><path d="M14.999 0.00464962L12.4055 0.000488281C9.49173 0.000488281 7.60874 1.93239 7.60874 4.92252V7.1919H5.00107C4.77573 7.1919 4.59326 7.37458 4.59326 7.59992V10.888C4.59326 11.1133 4.77594 11.2958 5.00107 11.2958H7.60874V19.5927C7.60874 19.818 7.79121 20.0005 8.01655 20.0005H11.4188C11.6442 20.0005 11.8266 19.8178 11.8266 19.5927V11.2958H14.8756C15.1009 11.2958 15.2834 11.1133 15.2834 10.888L15.2847 7.59992C15.2847 7.49172 15.2416 7.38811 15.1652 7.31154C15.0889 7.23497 14.9848 7.1919 14.8766 7.1919H11.8266V5.26811C11.8266 4.34347 12.047 3.87407 13.2515 3.87407L14.9986 3.87344C15.2237 3.87344 15.4062 3.69076 15.4062 3.46563V0.41246C15.4062 0.18754 15.2239 0.00506575 14.999 0.00464962Z" fill="white"/></g><defs><clipPath id="clip0_549_5613"><rect width="20" height="20" fill="white" transform="translate(0 0.000488281)"/></clipPath></defs></svg>
