<svg width="20" height="20" viewBox="0 0 20 20" xmlns="http://www.w3.org/2000/svg"><path d="M10.4833 6.98997C9.85915 6.89742 9.22167 7.00403 8.66157 7.29466C8.10147 7.58528 7.64727 8.04511 7.36357 8.60876C7.07988 9.1724 6.98113 9.81114 7.08138 10.4341C7.18163 11.0571 7.47577 11.6327 7.92196 12.0788C8.36815 12.525 8.94367 12.8192 9.56667 12.9194C10.1897 13.0197 10.8284 12.9209 11.392 12.6372C11.9557 12.3535 12.4155 11.8993 12.7061 11.3392C12.9968 10.7791 13.1034 10.1417 13.0108 9.51747C12.9164 8.88078 12.6197 8.29134 12.1646 7.8362C11.7095 7.38107 11.12 7.08439 10.4833 6.98997Z"/><path fill-rule="evenodd" clip-rule="evenodd" d="M1 5.00049C1 2.79135 2.79086 1.00049 5 1.00049H15C17.2091 1.00049 19 2.79135 19 5.00049V15.0005C19 17.2096 17.2091 19.0005 15 19.0005H5C2.79086 19.0005 1 17.2096 1 15.0005V5.00049ZM7.74043 5.51941C8.67393 5.03504 9.73639 4.85734 10.7767 5.01161C11.8379 5.16896 12.8203 5.66344 13.5788 6.42199C14.3374 7.18054 14.8318 8.16295 14.9892 9.22411C15.1435 10.2644 14.9658 11.3269 14.4814 12.2604C13.997 13.1939 13.2306 13.9509 12.2912 14.4237C11.3518 14.8965 10.2873 15.0611 9.24893 14.894C8.2106 14.7269 7.2514 14.2367 6.50775 13.4931C5.76409 12.7494 5.27386 11.7902 5.10678 10.7519C4.9397 9.71355 5.10428 8.64897 5.5771 7.70957C6.04993 6.77017 6.80693 6.00378 7.74043 5.51941ZM15.5 3.50049C14.9477 3.50049 14.5 3.9482 14.5 4.50049C14.5 5.05277 14.9477 5.50049 15.5 5.50049H15.51C16.0623 5.50049 16.51 5.05277 16.51 4.50049C16.51 3.9482 16.0623 3.50049 15.51 3.50049H15.5Z"/></svg>
