<svg width="20" height="20" viewBox="0 0 20 20" xmlns="http://www.w3.org/2000/svg"><g clip-path="url(#clip0_549_5620)"><path d="M4.5444 6.65434H0.247559V19.5578H4.5444V6.65434Z"/><path d="M18.6456 7.83273C17.743 6.84745 16.5492 6.35472 15.0649 6.35472C14.5181 6.35472 14.021 6.42199 13.5738 6.55662C13.1268 6.69116 12.7493 6.87992 12.4411 7.12301C12.133 7.36609 11.8876 7.59175 11.7055 7.79999C11.5323 7.99778 11.3629 8.22819 11.1976 8.48883V6.65399H6.91357L6.92671 7.27907C6.93551 7.69587 6.93984 8.98051 6.93984 11.1332C6.93984 13.286 6.93118 16.0941 6.91376 19.5577H11.1976V12.357C11.1976 11.9144 11.2451 11.5629 11.3408 11.3023C11.5232 10.8594 11.7985 10.4885 12.1676 10.1892C12.5367 9.88944 12.9945 9.73972 13.5415 9.73972C14.2878 9.73972 14.8371 9.99794 15.1887 10.5144C15.5402 11.0309 15.716 11.7449 15.716 12.6564V19.5573H19.9998V12.1619C19.9995 10.2607 19.5484 8.81769 18.6456 7.83273Z"/><path d="M2.42183 0.443283C1.70143 0.443283 1.11772 0.653939 0.670549 1.07484C0.223425 1.49583 0 2.02733 0 2.66983C0 3.30335 0.216995 3.83302 0.65103 4.25826C1.08493 4.68354 1.65793 4.89629 2.3697 4.89629H2.39574C3.12499 4.89629 3.71317 4.68372 4.16016 4.25826C4.60715 3.83302 4.82629 3.30353 4.81767 2.66983C4.809 2.02738 4.58749 1.49583 4.15359 1.07484C3.71974 0.653757 3.14227 0.443283 2.42183 0.443283Z"/></g><defs><clipPath id="clip0_549_5620"><rect width="20" height="20" transform="translate(0 0.000488281)"/></clipPath></defs></svg>
