<svg width="20" height="20" viewBox="0 0 20 20"  xmlns="http://www.w3.org/2000/svg"><g clip-path="url(#clip0_549_5616)"><path d="M20 3.79975C19.2639 4.12592 18.474 4.34713 17.6442 4.44589C18.4915 3.93847 19.1401 3.13364 19.4476 2.17756C18.6527 2.64746 17.7754 2.98867 16.8405 3.17364C16.0919 2.37504 15.0271 1.87762 13.8461 1.87762C11.5803 1.87762 9.74311 3.71478 9.74311 5.97936C9.74311 6.30053 9.77935 6.61422 9.84935 6.91419C6.44 6.74295 3.41683 5.10952 1.39346 2.62746C1.03977 3.23236 0.838563 3.9372 0.838563 4.68958C0.838563 6.11308 1.56343 7.36909 2.66324 8.10393C1.99085 8.08145 1.35846 7.89648 0.804837 7.58903V7.64027C0.804837 9.62739 2.21958 11.2858 4.09546 11.6633C3.75177 11.7558 3.38935 11.807 3.01441 11.807C2.74948 11.807 2.49327 11.7808 2.24206 11.7308C2.76445 13.3617 4.27919 14.5477 6.07386 14.5802C4.67036 15.68 2.90069 16.3337 0.978563 16.3337C0.647386 16.3337 0.321177 16.3137 0 16.2774C1.81592 17.4435 3.97177 18.1233 6.28883 18.1233C13.8362 18.1233 17.9616 11.872 17.9616 6.45053L17.9479 5.91939C18.754 5.34445 19.4513 4.6221 20 3.79975Z"/></g><defs><clipPath id="clip0_549_5616"><rect width="20" height="20" transform="translate(0 0.000488281)"/></clipPath></defs></svg>
