<svg width="128" height="26" viewBox="0 0 128 26" fill="none" xmlns="http://www.w3.org/2000/svg">
<g clip-path="url(#clip0_549_300)">
<path fill-rule="evenodd" clip-rule="evenodd" d="M124.374 19.1989C124.451 20.0785 125.155 21.1979 126.374 21.1979H127.087C127.363 21.1979 127.59 20.9713 127.59 20.6947V5.01034H127.587C127.572 4.74611 127.354 4.53448 127.087 4.53448H124.877C124.61 4.53448 124.392 4.74611 124.377 5.01034H124.374V6.2848C123.02 4.61587 120.886 3.92316 118.745 3.92316C113.879 3.92316 109.935 7.87059 109.935 12.7403C109.935 17.6102 113.879 21.5577 118.745 21.5577V21.5583C120.886 21.5583 123.218 20.7271 124.374 19.1968L124.374 19.1989ZM118.754 18.4719C115.659 18.4719 113.15 15.906 113.15 12.7403C113.15 9.57514 115.659 7.00911 118.754 7.00911C121.848 7.00911 124.357 9.57514 124.357 12.7403C124.357 15.906 121.848 18.4719 118.754 18.4719Z" fill="white"/>
<path fill-rule="evenodd" clip-rule="evenodd" d="M107.141 19.7383L107.14 11.6223H107.14C107.14 7.04732 104.256 3.961 99.6573 3.961C97.462 3.961 95.6623 5.23144 95.0268 6.32277C94.8894 5.46943 94.4367 4.57246 93.0328 4.57246H92.3173C92.0405 4.57246 91.8145 4.79921 91.8145 5.07589V19.2381C91.8145 19.2385 91.8145 19.2397 91.8145 19.2403V20.7615H91.8173C91.8318 21.0254 92.0504 21.2373 92.3175 21.2373H94.5274C94.5612 21.2373 94.5944 21.2332 94.6264 21.227C94.6411 21.2242 94.6547 21.2184 94.6689 21.2144C94.6854 21.2094 94.7024 21.2054 94.718 21.1991C94.7378 21.1909 94.7555 21.1799 94.7739 21.1697C94.7828 21.1642 94.7921 21.1604 94.8008 21.1545C94.8229 21.1404 94.8432 21.1233 94.8627 21.1058C94.8659 21.1025 94.8697 21.1004 94.8729 21.0975C94.8949 21.0762 94.9149 21.0527 94.9328 21.0283C94.9329 21.028 94.9329 21.028 94.9329 21.028C94.9883 20.9519 95.0218 20.8604 95.0273 20.7615H95.0301V11.4964C95.0301 9.03937 97.0206 7.04732 99.4761 7.04732C101.931 7.04732 103.922 9.03937 103.922 11.4964L103.924 19.2408L103.924 19.2381C103.924 19.245 103.926 19.252 103.926 19.2594V20.7615H103.928C103.943 21.0254 104.161 21.2373 104.429 21.2373H106.638C106.672 21.2373 106.705 21.2332 106.738 21.227C106.751 21.2246 106.763 21.2193 106.775 21.2158C106.794 21.2105 106.812 21.2059 106.829 21.1991C106.847 21.1915 106.864 21.1811 106.881 21.1715C106.892 21.1656 106.902 21.1613 106.913 21.1545C106.933 21.1413 106.952 21.125 106.97 21.109C106.975 21.1046 106.98 21.1014 106.984 21.097C107.005 21.0768 107.024 21.055 107.041 21.0322C107.042 21.0304 107.043 21.029 107.045 21.0273C107.099 20.9519 107.133 20.8611 107.138 20.7629C107.138 20.7623 107.139 20.7615 107.139 20.7615H107.141V19.7385L107.141 19.7383Z" fill="white"/>
<path fill-rule="evenodd" clip-rule="evenodd" d="M84.1266 19.1989C84.2039 20.0785 84.9075 21.1979 86.1262 21.1979H86.8394C87.1159 21.1979 87.3421 20.9713 87.3421 20.6947V5.01034H87.3393C87.3249 4.74611 87.1063 4.53448 86.8394 4.53448H84.6296C84.3624 4.53448 84.1441 4.74611 84.1292 5.01034H84.1266V6.2848C82.7725 4.61587 80.6379 3.92316 78.4972 3.92316C73.6316 3.92316 69.6873 7.87059 69.6873 12.7403C69.6873 17.6102 73.6316 21.5577 78.4972 21.5577V21.5583C80.6379 21.5583 82.9709 20.7271 84.1264 19.1968L84.1266 19.1989ZM78.5058 18.4719C75.4114 18.4719 72.9027 15.906 72.9027 12.7403C72.9027 9.57514 75.4114 7.00911 78.5058 7.00911C81.6005 7.00911 84.1087 9.57514 84.1087 12.7403C84.1087 15.906 81.6005 18.4719 78.5058 18.4719Z" fill="white"/>
<path fill-rule="evenodd" clip-rule="evenodd" d="M56.6187 16.9525C58.0939 17.9753 59.7042 18.472 61.2516 18.472C62.7258 18.472 64.2499 17.7072 64.2499 16.3759C64.2499 14.5986 60.929 14.3221 58.8424 13.6123C56.7555 12.9027 54.9582 11.4356 54.9582 9.05979C54.9582 5.42438 58.1948 3.92291 61.2158 3.92291C63.1299 3.92291 65.1048 4.55459 66.3852 5.45945C66.8262 5.79383 66.5576 6.17772 66.5576 6.17772L65.3354 7.92469C65.198 8.12145 64.9579 8.29146 64.613 8.07848C64.2682 7.86565 63.0588 7.00897 61.2158 7.00897C59.3726 7.00897 58.2623 7.86084 58.2623 8.9167C58.2623 10.1828 59.7054 10.5811 61.3956 11.0126C64.341 11.8072 67.5541 12.7622 67.5541 16.3759C67.5541 19.5791 64.5603 21.5585 61.2516 21.5585C58.7442 21.5585 56.6095 20.8431 54.8191 19.5283C54.4461 19.1547 54.7067 18.8079 54.7067 18.8079L55.9229 17.0698C56.1703 16.7448 56.4823 16.8581 56.6187 16.9525Z" fill="white"/>
<path fill-rule="evenodd" clip-rule="evenodd" d="M48.1236 19.1989C48.2009 20.0785 48.9044 21.1979 50.1233 21.1979H50.8365C51.1129 21.1979 51.3395 20.9713 51.3395 20.6947V5.01034H51.3364C51.322 4.74611 51.1037 4.53448 50.8365 4.53448H48.6266C48.3595 4.53448 48.1412 4.74611 48.1262 5.01034H48.1236V6.2848C46.7697 4.61587 44.635 3.92316 42.4944 3.92316C37.6288 3.92316 33.6843 7.87059 33.6843 12.7403C33.6843 17.6102 37.6288 21.5577 42.4944 21.5577V21.5583C44.635 21.5583 46.9678 20.7271 48.1233 19.1968L48.1236 19.1989ZM42.5031 18.4719C39.4085 18.4719 36.8997 15.906 36.8997 12.7403C36.8997 9.57514 39.4085 7.00911 42.5031 7.00911C45.5975 7.00911 48.106 9.57514 48.106 12.7403C48.106 15.906 45.5975 18.4719 42.5031 18.4719Z" fill="white"/>
<path fill-rule="evenodd" clip-rule="evenodd" d="M21.3327 13.34C18.0582 13.34 15.4038 15.9946 15.4038 19.2692C15.4038 22.5436 18.0582 25.1981 21.3327 25.1981C24.6071 25.1981 27.2615 22.5436 27.2615 19.2692C27.2615 15.9946 24.6071 13.34 21.3327 13.34ZM5.92889 13.3406C2.65448 13.3406 0 15.9946 0 19.2692C0 22.5436 2.65448 25.1981 5.92889 25.1981C9.20344 25.1981 11.858 22.5436 11.858 19.2692C11.858 15.9946 9.20344 13.3406 5.92889 13.3406ZM19.5595 5.92876C19.5595 9.20344 16.9052 11.8582 13.6308 11.8582C10.3562 11.8582 7.70188 9.20344 7.70188 5.92876C7.70188 2.65474 10.3562 0 13.6308 0C16.9052 0 19.5595 2.65474 19.5595 5.92876Z" fill="#F06A6A"/>
</g>
<defs>
<clipPath id="clip0_549_300">
<rect width="127.59" height="25.2628" fill="white"/>
</clipPath>
</defs>
</svg>
