<svg width="139" height="27" viewBox="0 0 139 27" fill="none" xmlns="http://www.w3.org/2000/svg">
<g clip-path="url(#clip0_549_286)">
<path d="M29.3921 2.22834C27.1461 1.18734 24.7445 0.430789 22.2337 0C21.9254 0.552257 21.5651 1.29505 21.3168 1.88595C18.6477 1.48833 16.0033 1.48833 13.3833 1.88595C13.135 1.29505 12.7666 0.552257 12.4555 0C9.942 0.430789 7.53768 1.19012 5.29165 2.23386C0.761383 9.01543 -0.466698 15.6286 0.147344 22.1478C3.15205 24.3706 6.06398 25.7209 8.92677 26.6044C9.6336 25.6408 10.264 24.6163 10.8071 23.5367C9.77277 23.1474 8.78213 22.6669 7.84608 22.1092C8.09441 21.9269 8.33732 21.7364 8.57199 21.5403C14.2812 24.1856 20.4844 24.1856 26.1254 21.5403C26.3628 21.7364 26.6057 21.9269 26.8513 22.1092C25.9125 22.6697 24.9191 23.1501 23.8848 23.5395C24.4279 24.6163 25.0556 25.6435 25.7652 26.6072C28.6307 25.7236 31.5453 24.3734 34.55 22.1478C35.2705 14.5903 33.3192 8.03795 29.3921 2.22834ZM11.5849 18.1385C9.87104 18.1385 8.46555 16.5536 8.46555 14.6235C8.46555 12.6934 9.84103 11.1057 11.5849 11.1057C13.3288 11.1057 14.7342 12.6906 14.7042 14.6235C14.7069 16.5536 13.3288 18.1385 11.5849 18.1385ZM23.1125 18.1385C21.3987 18.1385 19.9932 16.5536 19.9932 14.6235C19.9932 12.6934 21.3686 11.1057 23.1125 11.1057C24.8564 11.1057 26.2619 12.6906 26.2318 14.6235C26.2318 16.5536 24.8564 18.1385 23.1125 18.1385Z" fill="#5865F2"/>
<path d="M46.626 6.78772H54.0761C55.8721 6.78772 57.3894 7.07212 58.6341 7.63818C59.8755 8.20419 60.8063 8.99392 61.4232 10.0045C62.0396 11.0151 62.3507 12.1721 62.3507 13.4754C62.3507 14.7511 62.0287 15.908 61.3847 16.9435C60.7407 17.9817 59.7609 18.8018 58.4429 19.4065C57.1249 20.0112 55.4926 20.3149 53.5415 20.3149H46.626V6.78772ZM53.465 16.8772C54.674 16.8772 55.6048 16.5707 56.2541 15.9605C56.9038 15.3475 57.2286 14.5136 57.2286 13.4561C57.2286 12.4758 56.939 11.6944 56.3606 11.109C55.7822 10.5236 54.9061 10.2282 53.7351 10.2282H51.4045V16.8772H53.465Z" fill="white"/>
<path d="M73.5047 20.2984C72.473 20.0278 71.5422 19.6357 70.7156 19.1193V15.9108C71.3406 16.3995 72.1781 16.8027 73.2288 17.1202C74.2795 17.435 75.295 17.5923 76.2771 17.5923C76.7357 17.5923 77.0824 17.5316 77.3169 17.4101C77.5518 17.2886 77.6693 17.1423 77.6693 16.9738C77.6693 16.7806 77.6065 16.6204 77.4781 16.4906C77.3497 16.3609 77.1014 16.2531 76.7333 16.162L74.4407 15.6402C73.128 15.3309 72.1972 14.9029 71.6435 14.3534C71.0894 13.8067 70.8136 13.0888 70.8136 12.1997C70.8136 11.4514 71.0538 10.8025 71.5398 10.2475C72.0226 9.6925 72.7104 9.26449 73.6027 8.96351C74.4954 8.65979 75.5375 8.50793 76.7357 8.50793C77.8054 8.50793 78.7852 8.62389 79.6779 8.85585C80.5702 9.0878 81.307 9.38322 81.8939 9.74494V12.7795C81.2932 12.4178 80.6054 12.1334 79.8197 11.918C79.0363 11.7054 78.2315 11.6005 77.4015 11.6005C76.2034 11.6005 75.606 11.8076 75.606 12.219C75.606 12.4123 75.6988 12.5559 75.8843 12.6525C76.0698 12.7492 76.4108 12.8486 76.905 12.9535L78.8151 13.3014C80.0627 13.5196 80.993 13.9034 81.6042 14.4501C82.2159 14.9968 82.5212 15.8059 82.5212 16.8772C82.5212 18.0507 82.0166 18.9813 81.004 19.6716C79.9914 20.3619 78.5559 20.707 76.6948 20.707C75.6003 20.7043 74.5363 20.569 73.5047 20.2984Z" fill="white"/>
<path d="M87.0304 19.8924C85.9364 19.3512 85.1093 18.6167 84.558 17.6889C84.0068 16.7612 83.7285 15.7174 83.7285 14.5577C83.7285 13.398 84.0148 12.3598 84.588 11.4458C85.1611 10.5318 86.0016 9.81392 87.1098 9.29205C88.2175 8.77019 89.5412 8.51062 91.0832 8.51062C92.9934 8.51062 94.5791 8.91653 95.84 9.72831V13.2655C95.3953 12.9562 94.8764 12.7049 94.2842 12.5116C93.6921 12.3184 93.059 12.2217 92.3822 12.2217C91.1979 12.2217 90.2728 12.4398 89.604 12.8789C88.9353 13.3179 88.5999 13.8895 88.5999 14.5991C88.5999 15.2949 88.9243 15.8638 89.574 16.3111C90.2238 16.7556 91.165 16.9793 92.4012 16.9793C93.0371 16.9793 93.665 16.8854 94.2842 16.7004C94.9011 16.5127 95.4334 16.2835 95.8781 16.0128V19.434C94.4783 20.2845 92.8545 20.7097 91.0066 20.7097C89.4513 20.7042 88.1248 20.4336 87.0304 19.8924Z" fill="white"/>
<path d="M100.605 19.8925C99.5023 19.3514 98.6619 18.6113 98.0831 17.6698C97.5047 16.7282 97.2126 15.6789 97.2126 14.5192C97.2126 13.3595 97.5018 12.324 98.0831 11.4156C98.6643 10.5072 99.4995 9.79474 100.597 9.27839C101.691 8.76204 102.998 8.50525 104.513 8.50525C106.028 8.50525 107.335 8.76204 108.429 9.27839C109.523 9.79474 110.359 10.5016 110.932 11.4045C111.505 12.3075 111.791 13.3429 111.791 14.5165C111.791 15.6762 111.505 16.7254 110.932 17.667C110.359 18.6086 109.521 19.3486 108.418 19.8898C107.316 20.431 106.014 20.7016 104.51 20.7016C103.006 20.7016 101.705 20.4337 100.605 19.8925ZM106.409 16.4631C106.874 15.9937 107.108 15.3724 107.108 14.5993C107.108 13.8262 106.876 13.2104 106.409 12.7548C105.946 12.2964 105.312 12.0672 104.51 12.0672C103.694 12.0672 103.055 12.2964 102.589 12.7548C102.125 13.2132 101.893 13.8262 101.893 14.5993C101.893 15.3724 102.125 15.9937 102.589 16.4631C103.053 16.9325 103.694 17.17 104.51 17.17C105.312 17.1672 105.946 16.9325 106.409 16.4631Z" fill="white"/>
<path d="M123.27 9.22302V13.398C122.784 13.0749 122.156 12.9148 121.379 12.9148C120.36 12.9148 119.575 13.2268 119.028 13.8508C118.48 14.4749 118.207 15.4468 118.207 16.7611V20.3176H113.527V9.01043H118.112V12.6055C118.365 11.2912 118.778 10.322 119.345 9.69518C119.91 9.07116 120.641 8.75916 121.531 8.75916C122.205 8.75916 122.784 8.91379 123.27 9.22302Z" fill="white"/>
<path d="M138.82 6.40112V20.3177H134.139V17.7857C133.744 18.7383 133.143 19.4645 132.336 19.9615C131.528 20.4558 130.529 20.7043 129.344 20.7043C128.286 20.7043 127.363 20.4447 126.574 19.9229C125.786 19.401 125.177 18.6859 124.749 17.7774C124.323 16.8689 124.107 15.8418 124.107 14.6931C124.094 13.5086 124.32 12.4455 124.787 11.5039C125.251 10.5623 125.908 9.82784 126.755 9.30041C127.601 8.77303 128.567 8.50795 129.65 8.50795C131.88 8.50795 133.375 9.48817 134.139 11.4459V6.40112H138.82ZM133.441 16.3857C133.919 15.9163 134.156 15.3061 134.156 14.5606C134.156 13.8399 133.924 13.2517 133.46 12.8017C132.996 12.3516 132.36 12.1252 131.56 12.1252C130.772 12.1252 130.142 12.3543 129.669 12.8127C129.197 13.2711 128.963 13.8647 128.963 14.5992C128.963 15.3337 129.197 15.9329 129.669 16.3968C130.142 16.8606 130.764 17.0926 131.541 17.0926C132.33 17.0899 132.963 16.8551 133.441 16.3857Z" fill="white"/>
<path d="M66.2946 10.2142C67.5831 10.2142 68.6281 9.26479 68.6281 8.09361C68.6281 6.92243 67.5831 5.97302 66.2946 5.97302C65.0057 5.97302 63.9612 6.92243 63.9612 8.09361C63.9612 9.26479 65.0057 10.2142 66.2946 10.2142Z" fill="white"/>
<path d="M63.9592 11.675C65.389 12.2991 67.1631 12.3267 68.6257 11.675V20.3784H63.9592V11.675Z" fill="white"/>
</g>
<defs>
<clipPath id="clip0_549_286">
<rect width="138.82" height="26.6072" fill="white"/>
</clipPath>
</defs>
</svg>
