<svg width="106" height="24" viewBox="0 0 106 24" fill="none" xmlns="http://www.w3.org/2000/svg">
<path d="M12.2136 6.90978L16.5207 10.0078L18.5794 8.51667L29.7879 0.395031C29.8482 0.350915 29.9099 0.311034 29.9731 0.274329C30.0848 0.206213 30.2015 0.149744 30.3246 0.109863H2.07542C2.07506 0.109863 2.07506 0.109863 2.07471 0.109863C2.52293 0.109863 2.96794 0.240095 3.30911 0.499852L12.2136 6.90978Z" fill="#F2F2F2"/>
<path d="M0.979492 0.422926C1.30888 0.230932 1.6893 0.125053 2.07293 0.110229C1.66932 0.110582 1.29603 0.226697 0.979492 0.422926Z" fill="#F2F2F2"/>
<path d="M4.15088 23.9584V23.9733V23.9785H22.143L14.3772 16.5568L4.15088 23.9584Z" fill="#F2F2F2"/>
<path d="M0 21.9519C0 21.961 0.00138707 21.9699 0.00138707 21.9787C0.00138707 21.9695 0 21.9603 0 21.9508V21.9519Z" fill="#F2F2F2"/>
<path d="M4.15088 6.78442V23.9587L14.3772 16.5571L4.15088 6.78442Z" fill="#F2F2F2"/>
<path opacity="0.1" d="M4.15088 6.78442V23.9587L14.3772 16.5571L4.15088 6.78442Z" fill="#221F1F"/>
<path d="M28.9233 23.9961H29.3177L28.9233 23.9954V23.9961Z" fill="#D44C3D"/>
<path d="M33.074 21.9787V21.9745C33.074 21.9791 33.0732 21.9837 33.0732 21.9883C33.0732 21.9847 33.074 21.9819 33.074 21.9787Z" fill="#D44C3D"/>
<path opacity="0.08" d="M30.9982 23.9963H29.3174L30.9982 24.0006C32.1498 24.0006 33.0656 23.0992 33.073 21.9878C33.0723 22.0086 33.0698 22.0284 33.0684 22.0492C33.0145 23.1426 32.1281 23.9963 30.9982 23.9963Z" fill="#221F1F"/>
<path opacity="0.08" d="M22.1431 23.9783L28.9232 23.9952V23.9783H22.1431Z" fill="#221F1F"/>
<path d="M28.9233 23.9778V6.09375L16.4958 15.0515L16.4765 15.0377L14.3774 16.5571L22.1432 23.9789H28.9233V23.9778Z" fill="#F2F2F2"/>
<path opacity="0.08" d="M28.9233 23.9778V6.09375L16.4958 15.0515L16.4765 15.0377L14.3774 16.5571L22.1432 23.9789H28.9233V23.9778Z" fill="#221F1F"/>
<path d="M16.4763 15.0373L13.7909 13.1057L4.15088 6.18823V6.78398L14.3772 16.5566L16.4763 15.0373Z" fill="#F2F2F2"/>
<path opacity="0.1" d="M16.4763 15.0373L13.7909 13.1057L4.15088 6.18823V6.78398L14.3772 16.5566L16.4763 15.0373Z" fill="#221F1F"/>
<path opacity="0.08" d="M16.4763 15.0373L13.7909 13.1057L4.15088 6.18823V6.78398L14.3772 16.5566L16.4763 15.0373Z" fill="#221F1F"/>
<path d="M0.205208 3.00138L0.183594 2.99255L0.214214 3.02185C0.210971 3.01514 0.20809 3.00808 0.205208 3.00138Z" fill="#D44C3D"/>
<path opacity="0.08" d="M0.205208 3.00138L0.183594 2.99255L0.214214 3.02185C0.210971 3.01514 0.20809 3.00808 0.205208 3.00138Z" fill="#221F1F"/>
<path d="M1.64893 4.39282L3.83509 6.48217L4.15092 6.78393V6.18818L1.64893 4.39282Z" fill="#D44C3D"/>
<path opacity="0.08" d="M1.64893 4.39282L3.83509 6.48217L4.15092 6.78393V6.18818L1.64893 4.39282Z" fill="#221F1F"/>
<path d="M32.5227 3.44713C32.4299 3.54771 32.3257 3.64089 32.2104 3.72453L28.9233 6.09376V23.9778V23.9789V23.9958L29.318 23.9969H30.9989C32.1287 23.9969 33.0148 23.1428 33.0691 22.0498C33.0701 22.0293 33.073 22.0092 33.0737 21.9883C33.0737 21.9838 33.0744 21.9792 33.0744 21.9746V21.9442V21.9266V2.41833L33.043 2.44128C32.9699 2.80832 32.7953 3.15843 32.5227 3.44713Z" fill="#D44C3D"/>
<path opacity="0.08" d="M32.5227 3.44713C32.4299 3.54771 32.3257 3.64089 32.2104 3.72453L28.9233 6.09376V23.9778V23.9789V23.9958L29.318 23.9969H30.9989C32.1287 23.9969 33.0148 23.1428 33.0691 22.0498C33.0701 22.0293 33.073 22.0092 33.0737 21.9883C33.0737 21.9838 33.0744 21.9792 33.0744 21.9746V21.9442V21.9266V2.41833L33.043 2.44128C32.9699 2.80832 32.7953 3.15843 32.5227 3.44713Z" fill="#221F1F"/>
<path d="M30.4468 0.0763579C30.4057 0.0865929 30.3654 0.0964749 30.3251 0.109533C30.2016 0.149415 30.0849 0.206236 29.9736 0.273999C29.9104 0.310704 29.8487 0.350585 29.7883 0.394701L18.5795 8.51635L16.5208 10.0075L12.2137 6.90945L3.30922 0.499522C2.96806 0.239765 2.52304 0.109886 2.07482 0.109533H2.07446C2.07411 0.109533 2.07339 0.109533 2.07304 0.109533C1.6894 0.124356 1.30934 0.230236 0.979598 0.42223C0.742996 0.559873 0.532088 0.740574 0.367929 0.969979C0.118836 1.31303 0.00178433 1.70725 0.00178433 2.10218C0.00142747 2.11277 0 2.12194 0 2.13289V2.13712V2.16218V21.927V21.951C0 21.9605 0.00142747 21.9697 0.00142747 21.9789C0.00142747 21.9916 0.00285493 22.0043 0.0032118 22.017C0.00463926 22.0618 0.00570986 22.107 0.00999226 22.1511C0.0132041 22.185 0.0192708 22.2182 0.02391 22.2514C0.0285493 22.2828 0.032118 22.3145 0.0381847 22.3456C0.150241 22.9293 0.507821 23.4118 1.00601 23.6973C1.02421 23.7079 1.04169 23.7188 1.06025 23.7291C1.08095 23.7404 1.10236 23.7499 1.12341 23.7605C1.39214 23.8953 1.69404 23.9751 2.01594 23.9797C2.03592 23.98 2.05591 23.98 2.07589 23.9797H4.15143V23.9786V23.9733V23.9585V6.78416L3.8356 6.4824L1.64944 4.39341L4.15143 6.18877L13.7918 13.1062L16.4772 15.0378L16.4961 15.0516L28.9237 6.09383L32.2108 3.7246C32.326 3.64096 32.4302 3.54814 32.523 3.4472C32.796 3.1585 32.9705 2.8084 33.0433 2.44099L33.0747 2.41805V2.22253C33.1147 1.75384 32.9894 1.27138 32.6825 0.862335C32.1526 0.134944 31.254 -0.149871 30.4468 0.0763579ZM0.204841 3.0011C0.207696 3.0078 0.210551 3.01486 0.213763 3.02157L0.183429 2.99263L0.204841 3.0011Z" fill="#D44C3D"/>
<path d="M53.475 11.3908V13.501H59.9261C59.7437 15.218 59.0643 16.5672 57.8909 17.5495C56.7175 18.5317 55.244 19.0222 53.474 19.0222C51.5394 19.0222 49.9006 18.3598 48.561 17.0345C47.237 15.6927 46.5757 14.0134 46.5757 12.0028C46.5757 9.99215 47.2363 8.31502 48.561 6.97318C49.9039 5.64827 51.5397 4.98547 53.474 4.98547C54.466 4.98547 55.3978 5.16899 56.265 5.53675C57.1322 5.90485 57.8391 6.41625 58.3851 7.07058L60.025 5.45416C59.2937 4.61877 58.332 3.97079 57.1736 3.51481C56.0148 3.05882 54.7833 2.828 53.4765 2.828C50.8952 2.828 48.7119 3.71068 46.9258 5.47816C45.1397 7.24564 44.2461 9.41969 44.2461 12.0049C44.2461 14.5901 45.1386 16.7652 46.9258 18.5317C48.713 20.2981 50.8967 21.1818 53.4765 21.1818C56.1719 21.1818 58.348 20.314 60.0018 18.58C61.4742 17.1238 62.2097 15.1679 62.2097 12.715C62.2076 12.2707 62.1662 11.8274 62.0859 11.3908H53.475Z" fill="white"/>
<path d="M78.6507 8.36926C76.8624 8.36926 75.4653 9.13759 74.4564 10.6757C74.1545 9.96945 73.6331 9.37688 72.9683 8.98266C72.2899 8.57679 71.5044 8.36926 70.6108 8.36926C69.8985 8.36926 69.1745 8.56514 68.4643 8.9583C67.7541 9.35147 67.222 9.84204 66.8744 10.4311H66.776V8.76207H64.5923V20.7861H66.8712L66.8819 20.7797V14.134C66.8819 13.1359 67.181 12.2691 67.7755 11.5322C68.3701 10.7953 69.1059 10.4283 69.9835 10.4283C70.9599 10.4283 71.6572 10.6767 72.0676 11.1768C72.4776 11.6769 72.6878 12.4904 72.6878 13.6195V20.7815H74.9668V14.1351C74.9668 13.137 75.2658 12.2702 75.8603 11.5333C76.4549 10.7964 77.1918 10.4293 78.0683 10.4293C79.0436 10.4293 79.742 10.6778 80.1524 11.1779C80.5628 11.678 80.7726 12.4915 80.7726 13.6205V20.7825H83.043V13.2764C83.043 11.7059 82.6604 10.4953 81.9014 9.64511C81.1416 8.7949 80.0564 8.36926 78.6507 8.36926Z" fill="white"/>
<path d="M90.2186 8.37456L90.2058 8.36926C88.0485 8.36926 86.4005 9.15453 85.2928 10.7247L87.3027 11.9766C88.0532 10.9125 89.0581 10.381 90.3321 10.381C91.1465 10.37 91.9352 10.6637 92.5401 11.2029C93.1792 11.751 93.494 12.417 93.494 13.203V13.7186C92.6175 13.2281 91.5012 12.9828 90.1444 12.9828C88.5564 12.9828 87.2856 13.3509 86.3359 14.0867C85.3863 14.8226 84.9092 15.808 84.9092 17.0556C84.9092 18.2351 85.3585 19.2162 86.2617 20.0015C87.1649 20.7868 88.2841 21.1799 89.6241 21.1799C91.195 21.1799 92.4416 20.4921 93.3955 19.1188H93.494V20.7878H95.6776V13.3802C95.6776 11.8255 95.1923 10.6023 94.2148 9.71111C93.2374 8.81996 91.9063 8.37456 90.2186 8.37456ZM92.3652 18.1154C91.6115 18.8199 90.7561 19.1711 89.7968 19.1711C89.1174 19.1711 88.5271 18.9741 88.0225 18.582C87.5179 18.1899 87.2656 17.6972 87.2656 17.1103L87.2634 17.1114C87.2634 16.4553 87.5718 15.9079 88.1941 15.4656C88.8165 15.0234 89.5891 14.8032 90.5156 14.8032C91.7896 14.8032 92.7838 15.082 93.494 15.6375C93.494 16.5848 93.1189 17.411 92.3652 18.1154Z" fill="white"/>
<path d="M106 3.21985H103.721V20.7831H106V3.21985Z" fill="white"/>
<path d="M99.5995 3.01964C99.1702 3.01435 98.7569 3.18199 98.4578 3.48622C98.1495 3.78197 97.9786 4.19067 97.9861 4.61524C97.9861 5.05747 98.142 5.43404 98.4568 5.74427C98.7715 6.0545 99.1512 6.20978 99.5984 6.20978C100.046 6.20978 100.425 6.05555 100.74 5.74427C101.048 5.44851 101.219 5.03982 101.212 4.61524H101.213C101.22 4.19067 101.049 3.78233 100.741 3.48622C100.442 3.18093 100.029 3.01223 99.5995 3.01964Z" fill="white"/>
<path d="M100.74 8.76221H98.4609V20.783H100.74V8.76221Z" fill="white"/>
</svg>
