<svg width="101" height="26" viewBox="0 0 101 26" fill="none" xmlns="http://www.w3.org/2000/svg">
<path d="M32.6343 20.0373L33.8817 17.1511C35.2472 18.1525 37.0292 18.6827 38.8102 18.6827C40.1161 18.6827 40.9481 18.182 40.9481 17.4167C40.9184 15.2958 33.0805 16.9455 33.021 11.6147C32.9913 8.90558 35.4257 6.81421 38.8706 6.81421C40.9194 6.81421 42.9681 7.31492 44.4228 8.4639L43.2576 11.4121C41.9189 10.5602 40.2659 9.96603 38.6931 9.96603C37.6242 9.96603 36.9112 10.4667 36.9112 11.115C36.9409 13.2064 44.8383 12.0574 44.9275 17.153C44.9275 19.9212 42.5516 21.865 39.1671 21.865C36.6722 21.863 34.3865 21.2738 32.6343 20.0373Z" fill="white"/>
<path d="M80.7897 16.1055C80.1679 17.1955 78.9889 17.9313 77.6363 17.9313C75.6362 17.9313 74.0138 16.3229 74.0138 14.3378C74.0138 12.3526 75.6352 10.7443 77.6363 10.7443C78.9889 10.7443 80.1679 11.4801 80.7897 12.57L84.2564 10.6646C82.9584 8.36664 80.4803 6.81238 77.6363 6.81238C73.4466 6.81238 70.0503 10.1816 70.0503 14.3378C70.0503 18.494 73.4466 21.8632 77.6363 21.8632C80.4813 21.8632 82.9584 20.3089 84.2564 18.011L80.7897 16.1055Z" fill="white"/>
<path d="M51.0092 0.548218H46.6738V21.5682H51.0092V0.548218Z" fill="white"/>
<path d="M85.9434 0.548218V21.5692H90.2788V15.2705L95.4154 21.5692H100.956L94.4238 14.0871L100.481 7.10663H95.1774L90.2788 12.9095V0.548218H85.9434Z" fill="white"/>
<path d="M63.8616 16.134C63.2379 17.165 61.9319 17.9303 60.4772 17.9303C58.4771 17.9303 56.8548 16.3219 56.8548 14.3368C56.8548 12.3517 58.4771 10.7433 60.4772 10.7433C61.9319 10.7433 63.2379 11.5381 63.8616 12.5986V16.134ZM63.8616 7.10651V8.81522C63.1486 7.63673 61.3974 6.81238 59.556 6.81238C55.755 6.81238 52.7563 10.1403 52.7563 14.323C52.7563 18.5058 55.755 21.8632 59.556 21.8632C61.3964 21.8632 63.1486 21.0388 63.8606 19.8603V21.5681H68.1951V7.10651H63.8616Z" fill="white"/>
<path d="M5.86018 16.1085C5.86018 17.5753 4.6613 18.7646 3.18277 18.7646C1.70425 18.7646 0.505371 17.5753 0.505371 16.1085C0.505371 14.6418 1.70425 13.4525 3.18277 13.4525H5.86018V16.1085Z" fill="#E01E5A"/>
<path d="M7.19873 16.1085C7.19873 14.6418 8.39761 13.4525 9.87614 13.4525C11.3547 13.4525 12.5535 14.6418 12.5535 16.1085V22.7486C12.5535 24.2153 11.3547 25.4046 9.87614 25.4046C8.39761 25.4046 7.19873 24.2153 7.19873 22.7486V16.1085Z" fill="#E01E5A"/>
<path d="M9.87614 5.48465C8.39761 5.48465 7.19873 4.29535 7.19873 2.82863C7.19873 1.36192 8.39761 0.172607 9.87614 0.172607C11.3547 0.172607 12.5535 1.36192 12.5535 2.82863V5.48465H9.87614Z" fill="#36C5F0"/>
<path d="M9.87628 6.81274C11.3548 6.81274 12.5537 8.00205 12.5537 9.46877C12.5537 10.9355 11.3548 12.1248 9.87628 12.1248H3.18277C1.70425 12.1248 0.505371 10.9355 0.505371 9.46877C0.505371 8.00205 1.70425 6.81274 3.18277 6.81274H9.87628Z" fill="#36C5F0"/>
<path d="M20.5859 9.46877C20.5859 8.00205 21.7848 6.81274 23.2633 6.81274C24.7419 6.81274 25.9408 8.00205 25.9408 9.46877C25.9408 10.9355 24.7419 12.1248 23.2633 12.1248H20.5859V9.46877Z" fill="#2EB67D"/>
<path d="M19.2474 9.46869C19.2474 10.9354 18.0485 12.1247 16.57 12.1247C15.0915 12.1247 13.8926 10.9354 13.8926 9.46869V2.82863C13.8926 1.36192 15.0915 0.172607 16.57 0.172607C18.0485 0.172607 19.2474 1.36192 19.2474 2.82863V9.46869Z" fill="#2EB67D"/>
<path d="M16.57 20.0927C18.0485 20.0927 19.2474 21.282 19.2474 22.7487C19.2474 24.2154 18.0485 25.4047 16.57 25.4047C15.0915 25.4047 13.8926 24.2154 13.8926 22.7487V20.0927H16.57Z" fill="#ECB22E"/>
<path d="M16.57 18.7646C15.0915 18.7646 13.8926 17.5753 13.8926 16.1085C13.8926 14.6418 15.0915 13.4525 16.57 13.4525H23.2635C24.742 13.4525 25.9409 14.6418 25.9409 16.1085C25.9409 17.5753 24.742 18.7646 23.2635 18.7646H16.57Z" fill="#ECB22E"/>
</svg>
