<svg width="94" height="36" viewBox="0 0 94 36" fill="none" xmlns="http://www.w3.org/2000/svg">
<path d="M37.0021 11.6543H47.3136C47.3136 11.6543 49.3344 11.7062 49.0752 14.1417L41.458 21.8103H47.2099C47.2099 21.8103 50.0079 21.4997 49.7487 24.4014H39.8519C39.8519 24.4014 37.7274 24.5046 37.6755 21.8103L45.3446 14.1935H39.5932C39.5932 14.1935 36.691 14.1931 37.0021 11.6543Z" fill="white"/>
<path d="M34.0107 18.0053C34.0107 9.16554 26.8447 2 18.0053 2C9.16602 2 2 9.16554 2 18.0053C2 26.8442 9.16602 34.0097 18.0053 34.0097C26.8447 34.0097 34.0107 26.8442 34.0107 18.0053Z" fill="#0077FF"/>
<path d="M34.0107 18.0055C34.0107 9.16567 26.8447 2.00013 18.0053 2.00013C9.16602 2.00013 2 9.16567 2 18.0055C2 26.8443 9.16602 34.0099 18.0053 34.0099C26.8447 34.0099 34.0107 26.8443 34.0107 18.0055Z" stroke="white" stroke-width="3" stroke-miterlimit="10"/>
<path d="M61.9394 18.0279C61.9394 14.4792 59.0622 11.6025 55.5135 11.6025C51.9648 11.6025 49.0881 14.4792 49.0881 18.0279C49.0881 21.577 51.9648 24.4537 55.5135 24.4537C59.0622 24.4537 61.9394 21.577 61.9394 18.0279ZM55.5135 21.9145C53.3674 21.9145 51.6274 20.1749 51.6274 18.0279C51.6274 15.8817 53.3674 14.1417 55.5135 14.1417C57.6601 14.1417 59.4001 15.8817 59.4001 18.0279C59.4001 20.1749 57.6601 21.9145 55.5135 21.9145Z" fill="white"/>
<path d="M75.4127 18.0279C75.4127 14.4792 72.5361 11.6025 68.9874 11.6025C65.4382 11.6025 62.5615 14.4792 62.5615 18.0279C62.5615 21.577 65.4382 24.4537 68.9874 24.4537C72.5361 24.4537 75.4127 21.577 75.4127 18.0279ZM68.9874 21.9145C66.8408 21.9145 65.1008 20.1749 65.1008 18.0279C65.1008 15.8817 66.8408 14.1417 68.9874 14.1417C71.134 14.1417 72.874 15.8817 72.874 18.0279C72.874 20.1749 71.134 21.9145 68.9874 21.9145Z" fill="white"/>
<path d="M76.0195 11.6025V24.4019C76.0195 24.4019 78.4551 24.8675 78.5588 22.2769V16.7842C78.5588 16.7842 78.6624 14.1931 81.2017 14.1418C81.2017 14.1418 83.6368 14.245 83.7404 16.6805V22.3288C83.7404 22.3288 83.896 24.6093 86.3829 24.4019V16.7324C86.3829 16.7324 86.4347 13.9863 89.0258 14.1418C89.0258 14.1418 91.2021 14.2973 91.3572 16.3177V21.6549C91.3572 21.6549 91.1503 24.713 94.0001 24.4019V16.5255C94.0001 16.5255 93.8446 12.1205 89.285 11.6025C89.285 11.6025 86.3829 11.4989 85.0101 13.3642C85.0101 13.3642 81.9721 9.92253 78.3519 12.5352C78.3519 12.5352 77.5224 11.7058 76.0195 11.6025Z" fill="white"/>
<path d="M7.65503 12.1748H19.443C19.443 12.1748 22.3183 12.4623 22.4138 14.7625V23.6753H11.0093C11.0093 23.6753 7.75103 24.0588 7.65503 20.7045" fill="white"/>
<path d="M28.1641 12.1748V23.6887L23.0847 20.321V15.6251L28.1641 12.1748Z" fill="white"/>
</svg>
