<svg width="20" height="20" viewBox="0 0 20 20" fill="none" xmlns="http://www.w3.org/2000/svg">
<path fill-rule="evenodd" clip-rule="evenodd" d="M10.0001 2.1665C5.67385 2.1665 2.16675 5.67361 2.16675 9.99984C2.16675 14.3261 5.67385 17.8332 10.0001 17.8332C14.3263 17.8332 17.8334 14.3261 17.8334 9.99984C17.8334 5.67361 14.3263 2.1665 10.0001 2.1665ZM1.16675 9.99984C1.16675 5.12132 5.12157 1.1665 10.0001 1.1665C14.8786 1.1665 18.8334 5.12132 18.8334 9.99984C18.8334 14.8784 14.8786 18.8332 10.0001 18.8332C5.12157 18.8332 1.16675 14.8784 1.16675 9.99984Z" fill="#0077FF"/>
<path fill-rule="evenodd" clip-rule="evenodd" d="M6.31319 9.64645C6.50846 9.45118 6.82504 9.45118 7.0203 9.64645L10.0001 12.6262L12.9799 9.64645C13.1751 9.45118 13.4917 9.45118 13.687 9.64645C13.8822 9.84171 13.8822 10.1583 13.687 10.3536L10.3536 13.6869C10.2599 13.7807 10.1327 13.8333 10.0001 13.8333C9.86747 13.8333 9.7403 13.7807 9.64653 13.6869L6.31319 10.3536C6.11793 10.1583 6.11793 9.84171 6.31319 9.64645Z" fill="#0077FF"/>
<path fill-rule="evenodd" clip-rule="evenodd" d="M10 6.1665C10.2761 6.1665 10.5 6.39036 10.5 6.6665V13.3332C10.5 13.6093 10.2761 13.8332 10 13.8332C9.72386 13.8332 9.5 13.6093 9.5 13.3332V6.6665C9.5 6.39036 9.72386 6.1665 10 6.1665Z" fill="#0077FF"/>
</svg>
