<svg width="42" height="48" viewBox="0 0 42 48" fill="none" xmlns="http://www.w3.org/2000/svg">
<g clip-path="url(#clip0_549_5590)">
<path d="M23.9407 35.6087C17.7091 35.6087 12.6162 30.7232 12.2905 24.5737C8.04594 22.5028 5.50985 20.3708 5.92427 18.8857C6.33869 17.4007 9.61607 16.8987 14.3179 17.3388C15.2769 15.9413 16.5288 14.7694 17.9867 13.9048C19.4445 13.0403 21.0733 12.5037 22.7596 12.3326C24.4458 12.1614 26.1492 12.3597 27.751 12.9137C29.3529 13.4677 30.8148 14.364 32.035 15.5404L38.2641 4.75573C34.131 1.6606 29.1043 -0.00836194 23.9407 3.15044e-05C10.7185 3.15044e-05 0 10.7186 0 23.9407C0 37.1629 10.7185 47.8821 23.9407 47.8821C29.1045 47.8903 34.1313 46.2213 38.2647 43.1264L32.0375 32.3417C29.8652 34.4409 26.9615 35.6125 23.9407 35.6087Z" fill="white"/>
<path d="M33.5615 30.5459C38.2634 30.9854 41.5383 30.4847 41.9552 28.999C42.372 27.5134 39.8359 25.3819 35.5889 23.311C35.5999 23.5204 35.6061 23.7316 35.6061 23.9434C35.6105 26.3007 34.8974 28.6036 33.5615 30.5459Z" fill="white"/>
</g>
<defs>
<clipPath id="clip0_549_5590">
<rect width="42" height="47.882" fill="white"/>
</clipPath>
</defs>
</svg>
