<svg width="108" height="108" viewBox="0 0 108 108" fill="none" xmlns="http://www.w3.org/2000/svg">
<path d="M55.0398 33.2597L57.0643 29.7532L57.6272 30.0782L58.6394 28.325C58.8839 27.9016 59.1703 27.5302 59.488 27.2097L59.0263 26.7521C59.7918 25.9798 60.7263 25.4628 61.718 25.2011L61.8838 25.8296C62.7915 25.5901 63.7538 25.5901 64.6615 25.8296L64.8273 25.2011C65.819 25.4628 66.7535 25.9798 67.519 26.7521L67.0573 27.2097C67.375 27.5303 67.6614 27.9016 67.9059 28.325L68.9181 30.0783L69.481 29.7533L71.5055 33.2597L70.9426 33.5847L72.9671 37.0912L73.53 36.7662L75.5545 40.2727L74.9915 40.5977L77.016 44.1042L77.5789 43.7792L79.6034 47.2857L79.0405 47.6107L81.065 51.1172L81.6279 50.7922L83.6524 54.2987L83.0894 54.6237L85.1139 58.1302L85.6768 57.8052L87.7013 61.3117L87.1384 61.6367L89.1629 65.1432L89.7258 64.8182L91.7503 68.3247L91.1873 68.6497L93.2118 72.1561L93.7747 71.8311L95.7992 75.3376L95.2363 75.6626L96.2485 77.4159C96.493 77.8393 96.6714 78.273 96.7901 78.7084L97.4172 78.5374C97.7033 79.5865 97.6838 80.6543 97.4146 81.6439L96.7874 81.4733C96.5409 82.3791 96.0598 83.2125 95.3985 83.8788L95.8599 84.3367C95.1374 85.0647 94.2225 85.6155 93.1709 85.8922L93.0054 85.2636C92.569 85.3785 92.1041 85.4409 91.6153 85.4409H89.5908V86.0909H85.5419V85.4409H81.4929V86.0909H77.444V85.4409H73.395V86.0909H69.3461V85.4409H65.2971V86.0909H61.2482V85.4409H57.1992V86.0909H53.1503V85.4409H49.1013V86.0909H45.0524V85.4409H41.0034V86.0909H36.9545V85.4409H34.93C34.4411 85.4409 33.9763 85.3785 33.5398 85.2636L33.3744 85.8922C32.3228 85.6155 31.4079 85.0647 30.6854 84.3367L31.1468 83.8788C30.4855 83.2125 30.0044 82.3791 29.7579 81.4733L29.1307 81.6439C28.8615 80.6542 28.842 79.5865 29.1281 78.5374L29.7552 78.7084C29.8739 78.273 30.0524 77.8392 30.2968 77.4159L31.309 75.6626L30.7461 75.3376L32.7706 71.8311L33.3335 72.1561L35.358 68.6496L34.7951 68.3246L36.8195 64.8181L37.3825 65.1431L39.4069 61.6367L38.844 61.3116L40.8685 57.8052L41.4314 58.1302L43.4559 54.6237L42.893 54.2987L44.9174 50.7922L45.4803 51.1172L47.5048 47.6107L46.9419 47.2857L48.9664 43.7792L49.5293 44.1042L51.5538 40.5977L50.9908 40.2727L53.0153 36.7662L53.5782 37.0912L55.6027 33.5847L55.0398 33.2597Z" stroke="#5F6E80" stroke-width="1.3" stroke-dasharray="4 4"/>
<circle cx="63.2725" cy="25.5454" r="5.54545" fill="#01080C" stroke="#0077FF" stroke-width="2"/>
<circle cx="98.1817" cy="81.1817" r="5.54545" fill="#01080C" stroke="#0077FF" stroke-width="2"/>
<path d="M31.0397 33.2597L33.0641 29.7532L33.627 30.0782L34.6393 28.325C34.8837 27.9016 35.1701 27.5303 35.4879 27.2097L35.0262 26.7521C35.7917 25.9798 36.7262 25.4628 37.7179 25.2011L37.8837 25.8296C38.7914 25.5901 39.7536 25.5901 40.6613 25.8296L40.8272 25.2011C41.8189 25.4628 42.7534 25.9798 43.5188 26.7521L43.0572 27.2097C43.3749 27.5303 43.6613 27.9016 43.9058 28.325L44.918 30.0783L45.4809 29.7533L47.5054 33.2597L46.9425 33.5847L48.9669 37.0912L49.5299 36.7662L51.5543 40.2727L50.9914 40.5977L53.0159 44.1042L53.5788 43.7792L55.6033 47.2857L55.0404 47.6107L57.0648 51.1172L57.6278 50.7922L59.6522 54.2987L59.0893 54.6237L61.1138 58.1302L61.6767 57.8052L63.7012 61.3117L63.1383 61.6367L65.1627 65.1432L65.7256 64.8182L67.7501 68.3247L67.1872 68.6497L69.2117 72.1562L69.7746 71.8312L71.7991 75.3376L71.2362 75.6626L72.2484 77.4159C72.4928 77.8393 72.6712 78.273 72.79 78.7084L73.4171 78.5374C73.7032 79.5865 73.6837 80.6543 73.4144 81.644L72.7872 81.4733C72.5408 82.3792 72.0597 83.2125 71.3984 83.8788L71.8598 84.3367C71.1373 85.0647 70.2223 85.6155 69.1708 85.8923L69.0053 85.2637C68.5688 85.3785 68.104 85.4409 67.6151 85.4409H65.5907V86.0909H61.5417V85.4409H57.4928V86.0909H53.4438V85.4409H49.3949V86.0909H45.3459V85.4409H41.297V86.0909H37.2481V85.4409H33.1991V86.0909H29.1502V85.4409H25.1012V86.0909H21.0523V85.4409H17.0033V86.0909H12.9544V85.4409H10.9299C10.441 85.4409 9.97623 85.3785 9.53975 85.2637L9.3743 85.8923C8.32272 85.6155 7.40775 85.0647 6.68527 84.3367L7.14665 83.8788C6.48538 83.2125 6.00426 82.3792 5.75782 81.4733L5.13062 81.644C4.86137 80.6543 4.84186 79.5865 5.12796 78.5374L5.75506 78.7084C5.87381 78.273 6.05223 77.8393 6.29666 77.4159L7.3089 75.6626L6.74599 75.3376L8.77046 71.8311L9.33338 72.1561L11.3578 68.6496L10.7949 68.3246L12.8194 64.8182L13.3823 65.1432L15.4068 61.6367L14.8439 61.3117L16.8684 57.8052L17.4313 58.1302L19.4557 54.6237L18.8928 54.2987L20.9173 50.7922L21.4802 51.1172L23.5047 47.6107L22.9418 47.2857L24.9662 43.7792L25.5292 44.1042L27.5536 40.5977L26.9907 40.2727L29.0152 36.7662L29.5781 37.0912L31.6026 33.5847L31.0397 33.2597Z" stroke="#5F6E80" stroke-width="1.3" stroke-dasharray="4 4"/>
<circle cx="6.54545" cy="81.1817" r="5.54545" fill="#01080C" stroke="#0077FF" stroke-width="2"/>
<circle cx="39.273" cy="25.5454" r="5.54545" fill="#01080C" stroke="#0077FF" stroke-width="2"/>
<circle cx="74.1817" cy="81.1817" r="5.54545" fill="#01080C" stroke="#0077FF" stroke-width="2"/>
<circle cx="30.5454" cy="81.1817" r="5.54545" fill="#01080C" stroke="#0077FF" stroke-width="2"/>
</svg>
