<svg width="108" height="108" viewBox="0 0 108 108" fill="none" xmlns="http://www.w3.org/2000/svg">
<path d="M63.8505 18.2293C65.9142 14.686 71.033 14.686 73.0966 18.2293L93.4254 53.1337C95.5027 56.7004 92.9298 61.1763 88.8023 61.1763H48.1448C44.0174 61.1763 41.4445 56.7003 43.5217 53.1337L63.8505 18.2293Z" stroke="#5F6E80" stroke-width="1.3"/>
<path d="M68.4736 61.1743L68.4736 87.2614" stroke="#5F6E80" stroke-dasharray="4 4"/>
<ellipse cx="68.4737" cy="87.2612" rx="3.94737" ry="3.91306" fill="#0077FF"/>
<path d="M39.5264 99H97.4211" stroke="#5F6E80" stroke-dasharray="4 4"/>
<ellipse cx="85.5792" cy="74.2177" rx="3.94737" ry="3.91306" fill="#01080C" stroke="#5F6E80" stroke-width="1.3"/>
<ellipse cx="51.3683" cy="72.9135" rx="3.94737" ry="3.91306" fill="#01080C" stroke="#5F6E80" stroke-width="1.3"/>
<path d="M34.9032 18.2293C36.9669 14.686 42.0857 14.686 44.1494 18.2293L64.4782 53.1337C66.5554 56.7004 63.9825 61.1763 59.8551 61.1763H19.1976C15.0701 61.1763 12.4972 56.7003 14.5745 53.1337L34.9032 18.2293Z" stroke="#5F6E80" stroke-width="1.3"/>
<path d="M39.5264 61.1743L39.5264 87.2614" stroke="#5F6E80" stroke-dasharray="4 4"/>
<ellipse cx="39.5265" cy="87.2612" rx="3.94737" ry="3.91306" fill="#0077FF"/>
<path d="M10.5791 99H68.4738" stroke="#5F6E80" stroke-dasharray="4 4"/>
<ellipse cx="56.6315" cy="74.2177" rx="3.94737" ry="3.91306" fill="#01080C" stroke="#5F6E80" stroke-width="1.3"/>
<ellipse cx="22.421" cy="72.9135" rx="3.94737" ry="3.91306" fill="#01080C" stroke="#5F6E80" stroke-width="1.3"/>
</svg>
