<svg width="108" height="108" viewBox="0 0 108 108" fill="none" xmlns="http://www.w3.org/2000/svg">
<rect x="41.1114" y="24.4542" width="55.4175" height="57.2126" rx="5.35" stroke="#5F6E80" stroke-width="1.3" stroke-dasharray="4 4"/>
<path d="M58.0163 45.4482L58.0163 29.1574C58.0163 26.396 60.2549 24.1574 63.0163 24.1574L94.4775 24.1574" stroke="#5F6E80" stroke-width="2"/>
<ellipse cx="58.0166" cy="42.3733" rx="4.05125" ry="4.08227" fill="#01080C" stroke="#5F6E80" stroke-width="2"/>
<ellipse cx="95.8974" cy="25.1645" rx="8.1025" ry="8.16454" fill="#01080C" stroke="#0077FF" stroke-width="2"/>
<ellipse cx="95.8976" cy="25.1649" rx="2.70083" ry="2.72151" fill="#5F6E80"/>
<rect x="11.402" y="24.4542" width="55.4175" height="57.2126" rx="5.35" stroke="#5F6E80" stroke-width="1.3" stroke-dasharray="4 4"/>
<path d="M48.5638 60.5444V76.8353C48.5638 79.5967 46.3252 81.8353 43.5638 81.8353H12.1025" stroke="#5F6E80" stroke-width="2"/>
<ellipse cx="48.6328" cy="64.6267" rx="4.05125" ry="4.08227" fill="#01080C" stroke="#5F6E80" stroke-width="2"/>
<ellipse cx="12.1025" cy="81.8354" rx="8.1025" ry="8.16454" fill="#01080C" stroke="#5F6E80" stroke-width="2"/>
<ellipse cx="12.1027" cy="81.8358" rx="2.70083" ry="2.72151" fill="#0077FF"/>
<rect x="11.402" y="24.4542" width="55.4175" height="57.2126" rx="5.35" stroke="#5F6E80" stroke-width="1.3" stroke-dasharray="4 4"/>
<path d="M48.5638 60.5444V76.8353C48.5638 79.5967 46.3252 81.8353 43.5638 81.8353H12.1025" stroke="#5F6E80" stroke-width="2"/>
<ellipse cx="48.6328" cy="64.6267" rx="4.05125" ry="4.08227" fill="#01080C" stroke="#5F6E80" stroke-width="2"/>
<ellipse cx="12.1025" cy="81.8354" rx="8.1025" ry="8.16454" fill="#01080C" stroke="#5F6E80" stroke-width="2"/>
<ellipse cx="12.1027" cy="81.8358" rx="2.70083" ry="2.72151" fill="#0077FF"/>
<rect x="11.402" y="24.4542" width="55.4175" height="57.2126" rx="5.35" stroke="#5F6E80" stroke-width="1.3" stroke-dasharray="4 4"/>
<path d="M48.5638 60.5444V76.8353C48.5638 79.5967 46.3252 81.8353 43.5638 81.8353H12.1025" stroke="#5F6E80" stroke-width="2"/>
<ellipse cx="48.6328" cy="64.6267" rx="4.05125" ry="4.08227" fill="#01080C" stroke="#5F6E80" stroke-width="2"/>
<ellipse cx="12.1025" cy="81.8354" rx="8.1025" ry="8.16454" fill="#01080C" stroke="#5F6E80" stroke-width="2"/>
<ellipse cx="12.1027" cy="81.8358" rx="2.70083" ry="2.72151" fill="#0077FF"/>
<rect x="11.402" y="24.4542" width="55.4175" height="57.2126" rx="5.35" stroke="#5F6E80" stroke-width="1.3" stroke-dasharray="4 4"/>
<path d="M48.5638 60.5444V76.8353C48.5638 79.5967 46.3252 81.8353 43.5638 81.8353H12.1025" stroke="#5F6E80" stroke-width="2"/>
<ellipse cx="48.6328" cy="64.6267" rx="4.05125" ry="4.08227" fill="#01080C" stroke="#5F6E80" stroke-width="2"/>
<ellipse cx="12.1025" cy="81.8354" rx="8.1025" ry="8.16454" fill="#01080C" stroke="#5F6E80" stroke-width="2"/>
<ellipse cx="12.1027" cy="81.8358" rx="2.70083" ry="2.72151" fill="#0077FF"/>
<rect x="11.402" y="24.4542" width="55.4175" height="57.2126" rx="5.35" stroke="#5F6E80" stroke-width="1.3" stroke-dasharray="4 4"/>
<path d="M48.5638 60.5444V76.8353C48.5638 79.5967 46.3252 81.8353 43.5638 81.8353H12.1025" stroke="#5F6E80" stroke-width="2"/>
<ellipse cx="48.6328" cy="64.6267" rx="4.05125" ry="4.08227" fill="#01080C" stroke="#5F6E80" stroke-width="2"/>
<ellipse cx="12.1025" cy="81.8354" rx="8.1025" ry="8.16454" fill="#01080C" stroke="#5F6E80" stroke-width="2"/>
<ellipse cx="12.1027" cy="81.8358" rx="2.70083" ry="2.72151" fill="#0077FF"/>
<rect x="11.402" y="24.4542" width="55.4175" height="57.2126" rx="5.35" stroke="#5F6E80" stroke-width="1.3" stroke-dasharray="4 4"/>
<path d="M48.5638 60.5444V76.8353C48.5638 79.5967 46.3252 81.8353 43.5638 81.8353H12.1025" stroke="#5F6E80" stroke-width="2"/>
<ellipse cx="48.6328" cy="64.6267" rx="4.05125" ry="4.08227" fill="#01080C" stroke="#5F6E80" stroke-width="2"/>
<ellipse cx="12.1025" cy="81.8354" rx="8.1025" ry="8.16454" fill="#01080C" stroke="#5F6E80" stroke-width="2"/>
<ellipse cx="12.1027" cy="81.8358" rx="2.70083" ry="2.72151" fill="#0077FF"/>
<rect x="11.402" y="24.4542" width="55.4175" height="57.2126" rx="5.35" stroke="#5F6E80" stroke-width="1.3" stroke-dasharray="4 4"/>
<path d="M48.5638 60.5444V76.8353C48.5638 79.5967 46.3252 81.8353 43.5638 81.8353H12.1025" stroke="#5F6E80" stroke-width="2"/>
<ellipse cx="48.6328" cy="64.6267" rx="4.05125" ry="4.08227" fill="#01080C" stroke="#5F6E80" stroke-width="2"/>
<ellipse cx="12.1025" cy="81.8354" rx="8.1025" ry="8.16454" fill="#01080C" stroke="#5F6E80" stroke-width="2"/>
<ellipse cx="12.1027" cy="81.8358" rx="2.70083" ry="2.72151" fill="#0077FF"/>
<rect x="11.402" y="24.4542" width="55.4175" height="57.2126" rx="5.35" stroke="#5F6E80" stroke-width="1.3" stroke-dasharray="4 4"/>
<path d="M48.5638 60.5444V76.8353C48.5638 79.5967 46.3252 81.8353 43.5638 81.8353H12.1025" stroke="#5F6E80" stroke-width="2"/>
<ellipse cx="48.6328" cy="64.6267" rx="4.05125" ry="4.08227" fill="#01080C" stroke="#5F6E80" stroke-width="2"/>
<ellipse cx="12.1025" cy="81.8354" rx="8.1025" ry="8.16454" fill="#01080C" stroke="#5F6E80" stroke-width="2"/>
<ellipse cx="12.1027" cy="81.8358" rx="2.70083" ry="2.72151" fill="#0077FF"/>
<rect x="11.402" y="24.4542" width="55.4175" height="57.2126" rx="5.35" stroke="#5F6E80" stroke-width="1.3" stroke-dasharray="4 4"/>
<path d="M48.5638 60.5444V76.8353C48.5638 79.5967 46.3252 81.8353 43.5638 81.8353H12.1025" stroke="#5F6E80" stroke-width="2"/>
<ellipse cx="48.6328" cy="64.6267" rx="4.05125" ry="4.08227" fill="#01080C" stroke="#5F6E80" stroke-width="2"/>
<ellipse cx="12.1025" cy="81.8354" rx="8.1025" ry="8.16454" fill="#01080C" stroke="#5F6E80" stroke-width="2"/>
<ellipse cx="12.1027" cy="81.8358" rx="2.70083" ry="2.72151" fill="#0077FF"/>
<rect x="11.402" y="24.4542" width="55.4175" height="57.2126" rx="5.35" stroke="#5F6E80" stroke-width="1.3" stroke-dasharray="4 4"/>
<path d="M48.5638 60.5444V76.8353C48.5638 79.5967 46.3252 81.8353 43.5638 81.8353H12.1025" stroke="#5F6E80" stroke-width="2"/>
<ellipse cx="48.6328" cy="64.6267" rx="4.05125" ry="4.08227" fill="#01080C" stroke="#5F6E80" stroke-width="2"/>
<ellipse cx="12.1025" cy="81.8354" rx="8.1025" ry="8.16454" fill="#01080C" stroke="#5F6E80" stroke-width="2"/>
<ellipse cx="12.1027" cy="81.8358" rx="2.70083" ry="2.72151" fill="#0077FF"/>
<rect x="11.402" y="24.4542" width="55.4175" height="57.2126" rx="5.35" stroke="#5F6E80" stroke-width="1.3" stroke-dasharray="4 4"/>
<path d="M48.5638 60.5444V76.8353C48.5638 79.5967 46.3252 81.8353 43.5638 81.8353H12.1025" stroke="#5F6E80" stroke-width="2"/>
<ellipse cx="48.6328" cy="64.6267" rx="4.05125" ry="4.08227" fill="#01080C" stroke="#5F6E80" stroke-width="2"/>
<ellipse cx="12.1025" cy="81.8354" rx="8.1025" ry="8.16454" fill="#01080C" stroke="#5F6E80" stroke-width="2"/>
<ellipse cx="12.1027" cy="81.8358" rx="2.70083" ry="2.72151" fill="#0077FF"/>
<rect x="11.402" y="24.4542" width="55.4175" height="57.2126" rx="5.35" stroke="#5F6E80" stroke-width="1.3" stroke-dasharray="4 4"/>
<path d="M48.5638 60.5444V76.8353C48.5638 79.5967 46.3252 81.8353 43.5638 81.8353H12.1025" stroke="#5F6E80" stroke-width="2"/>
<ellipse cx="48.6328" cy="64.6267" rx="4.05125" ry="4.08227" fill="#01080C" stroke="#5F6E80" stroke-width="2"/>
<ellipse cx="12.1025" cy="81.8354" rx="8.1025" ry="8.16454" fill="#01080C" stroke="#5F6E80" stroke-width="2"/>
<ellipse cx="12.1027" cy="81.8358" rx="2.70083" ry="2.72151" fill="#0077FF"/>
<rect x="11.402" y="24.4542" width="55.4175" height="57.2126" rx="5.35" stroke="#5F6E80" stroke-width="1.3" stroke-dasharray="4 4"/>
<path d="M48.5638 60.5444V76.8353C48.5638 79.5967 46.3252 81.8353 43.5638 81.8353H12.1025" stroke="#5F6E80" stroke-width="2"/>
<ellipse cx="48.6328" cy="64.6267" rx="4.05125" ry="4.08227" fill="#01080C" stroke="#5F6E80" stroke-width="2"/>
<ellipse cx="12.1025" cy="81.8354" rx="8.1025" ry="8.16454" fill="#01080C" stroke="#5F6E80" stroke-width="2"/>
<ellipse cx="12.1027" cy="81.8358" rx="2.70083" ry="2.72151" fill="#0077FF"/>
<rect x="11.402" y="24.4542" width="55.4175" height="57.2126" rx="5.35" stroke="#5F6E80" stroke-width="1.3" stroke-dasharray="4 4"/>
<path d="M48.5638 60.5444V76.8353C48.5638 79.5967 46.3252 81.8353 43.5638 81.8353H12.1025" stroke="#5F6E80" stroke-width="2"/>
<ellipse cx="48.6328" cy="64.6267" rx="4.05125" ry="4.08227" fill="#01080C" stroke="#5F6E80" stroke-width="2"/>
<ellipse cx="12.1025" cy="81.8354" rx="8.1025" ry="8.16454" fill="#01080C" stroke="#5F6E80" stroke-width="2"/>
<ellipse cx="12.1027" cy="81.8358" rx="2.70083" ry="2.72151" fill="#0077FF"/>
</svg>
