<svg width="70" height="71" viewBox="0 0 70 71" fill="none" xmlns="http://www.w3.org/2000/svg">
<path fill-rule="evenodd" clip-rule="evenodd" d="M36.3243 45.8426C35.7318 45.9464 35.1222 46.0005 34.5 46.0005C33.8778 46.0005 33.2682 45.9464 32.6757 45.8426L32.9001 44.5621C33.4188 44.6529 33.9533 44.7005 34.5 44.7005C35.0467 44.7005 35.5812 44.6529 36.0999 44.5621L36.3243 45.8426ZM28.477 44.1024L29.2236 43.0381C28.3449 42.4218 27.5787 41.6556 26.9624 40.7769L25.8981 41.5235C26.6011 42.5257 27.4748 43.3994 28.477 44.1024ZM24.1579 37.3247L25.4384 37.1004C25.3475 36.5817 25.3 36.0472 25.3 35.5005C25.3 34.9538 25.3475 34.4193 25.4384 33.9005L24.1579 33.6762C24.0541 34.2687 24 34.8783 24 35.5005C24 36.1227 24.0541 36.7323 24.1579 37.3247ZM25.8981 29.4775L26.9624 30.2241C27.5787 29.3454 28.3449 28.5792 29.2236 27.9629L28.477 26.8986C27.4748 27.6016 26.6011 28.4753 25.8981 29.4775ZM32.6757 25.1584C33.2682 25.0546 33.8778 25.0005 34.5 25.0005C35.1222 25.0005 35.7318 25.0546 36.3243 25.1584L36.0999 26.4389C35.5812 26.348 35.0467 26.3005 34.5 26.3005C33.9533 26.3005 33.4188 26.348 32.9001 26.4389L32.6757 25.1584ZM40.523 26.8986L39.7764 27.9629C40.6551 28.5792 41.4213 29.3454 42.0376 30.2241L43.1019 29.4775C42.3989 28.4753 41.5252 27.6016 40.523 26.8986ZM44.8421 33.6762L43.5616 33.9005C43.6525 34.4193 43.7 34.9538 43.7 35.5005C43.7 36.0472 43.6525 36.5817 43.5616 37.1004L44.8421 37.3247C44.9459 36.7323 45 36.1227 45 35.5005C45 34.8783 44.9459 34.2687 44.8421 33.6762ZM43.1019 41.5235L42.0376 40.7769C41.4213 41.6556 40.6551 42.4218 39.7764 43.0381L40.523 44.1024C41.5252 43.3994 42.3989 42.5257 43.1019 41.5235Z" fill="#5F6E80"/>
<path d="M32 35.5005C32 34.1198 33.1193 33.0005 34.5 33.0005C35.8807 33.0005 37 34.1198 37 35.5005C37 36.8812 35.8807 38.0005 34.5 38.0005C33.1193 38.0005 32 36.8812 32 35.5005Z" fill="#0077FF"/>
<path fill-rule="evenodd" clip-rule="evenodd" d="M31 35.5005C31 33.5675 32.567 32.0005 34.5 32.0005C36.433 32.0005 38 33.5675 38 35.5005C38 37.4335 36.433 39.0005 34.5 39.0005C32.567 39.0005 31 37.4335 31 35.5005ZM34.5 34.0005C33.6716 34.0005 33 34.6721 33 35.5005C33 36.3289 33.6716 37.0005 34.5 37.0005C35.3284 37.0005 36 36.3289 36 35.5005C36 34.6721 35.3284 34.0005 34.5 34.0005Z" fill="#0077FF"/>
<path fill-rule="evenodd" clip-rule="evenodd" d="M6 36.0005C6 52.0167 18.9837 65.0005 35 65.0005L35 67.0005C17.8792 67.0005 4 53.1213 4 36.0005L6 36.0005Z" fill="#5F6E80"/>
<path fill-rule="evenodd" clip-rule="evenodd" d="M60.1147 21.4811C52.1066 7.61058 34.3705 2.8582 20.5 10.8663L19.5 9.13428C34.3271 0.573864 53.2864 5.65399 61.8468 20.4811L60.1147 21.4811Z" fill="#5F6E80"/>
<path fill-rule="evenodd" clip-rule="evenodd" d="M30.4537 52.5334C39.5226 54.9635 48.8443 49.5816 51.2743 40.5126L53.2062 41.0303C50.4903 51.1661 40.0719 57.1812 29.936 54.4653L30.4537 52.5334Z" fill="#5F6E80"/>
<path fill-rule="evenodd" clip-rule="evenodd" d="M38.5463 18.4675C29.4774 16.0375 20.1557 21.4194 17.7257 30.4883L15.7938 29.9707C18.5097 19.8348 28.9281 13.8198 39.064 16.5357L38.5463 18.4675Z" fill="#5F6E80"/>
<path d="M16 10.0005C16 7.79135 17.7909 6.00049 20 6.00049C22.2091 6.00049 24 7.79135 24 10.0005C24 12.2096 22.2091 14.0005 20 14.0005C17.7909 14.0005 16 12.2096 16 10.0005Z" fill="#01080C"/>
<path fill-rule="evenodd" clip-rule="evenodd" d="M15 10.0005C15 7.23906 17.2386 5.00049 20 5.00049C22.7614 5.00049 25 7.23906 25 10.0005C25 12.7619 22.7614 15.0005 20 15.0005C17.2386 15.0005 15 12.7619 15 10.0005ZM20 7.00049C18.3431 7.00049 17 8.34363 17 10.0005C17 11.6573 18.3431 13.0005 20 13.0005C21.6569 13.0005 23 11.6573 23 10.0005C23 8.34363 21.6569 7.00049 20 7.00049Z" fill="#0077FF"/>
<path d="M31 66.0005C31 63.7913 32.7909 62.0005 35 62.0005C37.2091 62.0005 39 63.7913 39 66.0005C39 68.2096 37.2091 70.0005 35 70.0005C32.7909 70.0005 31 68.2096 31 66.0005Z" fill="#01080C"/>
<path fill-rule="evenodd" clip-rule="evenodd" d="M30 66.0005C30 63.2391 32.2386 61.0005 35 61.0005C37.7614 61.0005 40 63.2391 40 66.0005C40 68.7619 37.7614 71.0005 35 71.0005C32.2386 71.0005 30 68.7619 30 66.0005ZM35 63.0005C33.3431 63.0005 32 64.3436 32 66.0005C32 67.6573 33.3431 69.0005 35 69.0005C36.6569 69.0005 38 67.6573 38 66.0005C38 64.3436 36.6569 63.0005 35 63.0005Z" fill="#0077FF"/>
<path d="M3 36.0005C3 34.8959 3.89543 34.0005 5 34.0005C6.10457 34.0005 7 34.8959 7 36.0005C7 37.1051 6.10457 38.0005 5 38.0005C3.89543 38.0005 3 37.1051 3 36.0005Z" fill="#5F6E80"/>
<path fill-rule="evenodd" clip-rule="evenodd" d="M2 36.0005C2 34.3436 3.34315 33.0005 5 33.0005C6.65685 33.0005 8 34.3436 8 36.0005C8 37.6573 6.65685 39.0005 5 39.0005C3.34315 39.0005 2 37.6573 2 36.0005ZM5 35.0005C4.44772 35.0005 4 35.4482 4 36.0005C4 36.5528 4.44772 37.0005 5 37.0005C5.55228 37.0005 6 36.5528 6 36.0005C6 35.4482 5.55228 35.0005 5 35.0005Z" fill="#5F6E80"/>
<path d="M59 21.0005C59 19.8959 59.8954 19.0005 61 19.0005C62.1046 19.0005 63 19.8959 63 21.0005C63 22.1051 62.1046 23.0005 61 23.0005C59.8954 23.0005 59 22.1051 59 21.0005Z" fill="#5F6E80"/>
<path fill-rule="evenodd" clip-rule="evenodd" d="M58 21.0005C58 19.3436 59.3431 18.0005 61 18.0005C62.6569 18.0005 64 19.3436 64 21.0005C64 22.6573 62.6569 24.0005 61 24.0005C59.3431 24.0005 58 22.6573 58 21.0005ZM61 20.0005C60.4477 20.0005 60 20.4482 60 21.0005C60 21.5528 60.4477 22.0005 61 22.0005C61.5523 22.0005 62 21.5528 62 21.0005C62 20.4482 61.5523 20.0005 61 20.0005Z" fill="#5F6E80"/>
<path fill-rule="evenodd" clip-rule="evenodd" d="M47.0533 61.606C56.7151 56.7751 63.9733 46.6416 63.0028 32.5693L64.9981 32.4317C66.0276 47.3594 58.2858 58.2258 47.9477 63.3949L47.0533 61.606Z" fill="#5F6E80"/>
</svg>
