<svg width="70" height="70" viewBox="0 0 70 70" fill="none" xmlns="http://www.w3.org/2000/svg">
<path fill-rule="evenodd" clip-rule="evenodd" d="M44.199 62.9154C43.4734 62.9718 42.7401 63.0005 42 63.0005C41.2599 63.0005 40.5266 62.9718 39.801 62.9154L39.9017 61.6193C40.5938 61.6731 41.2936 61.7005 42 61.7005C42.7064 61.7005 43.4062 61.6731 44.0983 61.6193L44.199 62.9154ZM35.4607 62.2328L35.7632 60.9684C34.3912 60.6402 33.0605 60.206 31.7799 59.675L31.2819 60.8758C32.6253 61.4329 34.0214 61.8884 35.4607 62.2328ZM27.3683 58.878L28.0486 57.7702C26.8538 57.0365 25.721 56.2113 24.66 55.3042L23.8152 56.2924C24.9276 57.2433 26.1154 58.1086 27.3683 58.878ZM20.7081 53.1852L21.6963 52.3405C20.7892 51.2795 19.964 50.1467 19.2303 48.9519L18.1225 49.6322C18.8919 50.8851 19.7572 52.0729 20.7081 53.1852ZM16.1247 45.7186L17.3255 45.2206C16.7945 43.94 16.3603 42.6093 16.032 41.2373L14.7677 41.5398C15.1121 42.9791 15.5676 44.3752 16.1247 45.7186ZM14.0851 37.1995L15.3812 37.0988C15.3274 36.4067 15.3 35.7069 15.3 35.0005C15.3 34.2941 15.3274 33.5943 15.3812 32.9022L14.0851 32.8015C14.0287 33.5271 14 34.2604 14 35.0005C14 35.7406 14.0287 36.4739 14.0851 37.1995ZM14.7677 28.4612L16.032 28.7637C16.3603 27.3917 16.7945 26.0609 17.3255 24.7804L16.1247 24.2824C15.5676 25.6258 15.1121 27.0219 14.7677 28.4612ZM18.1225 20.3688L19.2303 21.0491C19.964 19.8543 20.7892 18.7215 21.6963 17.6605L20.7081 16.8157C19.7572 17.9281 18.8919 19.1159 18.1225 20.3688ZM23.8152 13.7086L24.66 14.6967C25.721 13.7897 26.8538 12.9645 28.0486 12.2308L27.3683 11.123C26.1154 11.8924 24.9276 12.7577 23.8152 13.7086ZM31.2819 9.12514L31.7799 10.326C33.0605 9.79497 34.3912 9.36078 35.7632 9.03254L35.4607 7.76822C34.0214 8.11258 32.6253 8.56808 31.2819 9.12514ZM39.801 7.08557C40.5266 7.0292 41.2599 7.00049 42 7.00049C42.7401 7.00049 43.4734 7.0292 44.199 7.08557L44.0983 8.38166C43.4062 8.32789 42.7064 8.30049 42 8.30049C41.2936 8.30049 40.5938 8.32789 39.9017 8.38167L39.801 7.08557ZM48.5393 7.76822L48.2368 9.03254C49.6088 9.36078 50.9395 9.79496 52.2201 10.326L52.7181 9.12514C51.3747 8.56808 49.9786 8.11258 48.5393 7.76822ZM56.6317 11.123L55.9514 12.2308C57.1462 12.9645 58.279 13.7897 59.34 14.6967L60.1847 13.7086C59.0724 12.7577 57.8846 11.8924 56.6317 11.123ZM63.2919 16.8157L62.3037 17.6605C63.2108 18.7215 64.036 19.8543 64.7697 21.0491L65.8775 20.3688C65.1081 19.1159 64.2428 17.9281 63.2919 16.8157ZM67.8753 24.2824L66.6745 24.7804C67.2055 26.0609 67.6397 27.3917 67.968 28.7637L69.2323 28.4612C68.8879 27.0219 68.4324 25.6258 67.8753 24.2824ZM69.9149 32.8015L68.6188 32.9021C68.6726 33.5943 68.7 34.2941 68.7 35.0005C68.7 35.7069 68.6726 36.4067 68.6188 37.0988L69.9149 37.1995C69.9713 36.4739 70 35.7406 70 35.0005C70 34.2604 69.9713 33.5271 69.9149 32.8015ZM69.2323 41.5398L67.968 41.2373C67.6397 42.6093 67.2055 43.94 66.6745 45.2206L67.8753 45.7185C68.4324 44.3752 68.8879 42.9791 69.2323 41.5398ZM65.8775 49.6322L64.7697 48.9519C64.036 50.1467 63.2108 51.2795 62.3037 52.3405L63.2919 53.1852C64.2428 52.0729 65.1081 50.8851 65.8775 49.6322ZM60.1848 56.2924L59.34 55.3042C58.279 56.2113 57.1462 57.0365 55.9514 57.7702L56.6317 58.878C57.8846 58.1086 59.0724 57.2433 60.1848 56.2924ZM52.7181 60.8758L52.2201 59.675C50.9395 60.206 49.6088 60.6402 48.2368 60.9684L48.5393 62.2328C49.9786 61.8884 51.3747 61.4329 52.7181 60.8758Z" fill="#5F6E80"/>
<path fill-rule="evenodd" clip-rule="evenodd" d="M2 35.0005C2 45.4939 10.5066 54.0005 21 54.0005C31.4934 54.0005 40 45.4939 40 35.0005C40 24.5071 31.4934 16.0005 21 16.0005C10.5066 16.0005 2 24.5071 2 35.0005ZM21 14.0005C9.40202 14.0005 0 23.4025 0 35.0005C0 46.5985 9.40202 56.0005 21 56.0005C32.598 56.0005 42 46.5985 42 35.0005C42 23.4025 32.598 14.0005 21 14.0005Z" fill="#5F6E80"/>
<path fill-rule="evenodd" clip-rule="evenodd" d="M42.9727 30.473L56.659 16.7866L60.1945 20.3221L46.5082 34.0086L42.9727 30.473Z" fill="#01080C"/>
<path fill-rule="evenodd" clip-rule="evenodd" d="M44.0332 31.5336L57.7196 17.8472L59.1338 19.2614L45.4474 32.9478L44.0332 31.5336Z" fill="#5F6E80"/>
<path fill-rule="evenodd" clip-rule="evenodd" d="M42.4239 34.3027L66.2332 53.8403L64.9645 55.3863L41.1552 35.8488L42.4239 34.3027Z" fill="#5F6E80"/>
<path d="M67 15.0005C67 18.3142 64.3137 21.0005 61 21.0005C57.6863 21.0005 55 18.3142 55 15.0005C55 11.6868 57.6863 9.00049 61 9.00049C64.3137 9.00049 67 11.6868 67 15.0005Z" fill="#01080C"/>
<path fill-rule="evenodd" clip-rule="evenodd" d="M61 19.0005C63.2091 19.0005 65 17.2096 65 15.0005C65 12.7913 63.2091 11.0005 61 11.0005C58.7909 11.0005 57 12.7913 57 15.0005C57 17.2096 58.7909 19.0005 61 19.0005ZM61 21.0005C64.3137 21.0005 67 18.3142 67 15.0005C67 11.6868 64.3137 9.00049 61 9.00049C57.6863 9.00049 55 11.6868 55 15.0005C55 18.3142 57.6863 21.0005 61 21.0005Z" fill="#0077FF"/>
<path d="M50.2154 35.076C50.2154 39.729 46.4434 43.5011 41.7903 43.5011C37.1373 43.5011 33.3652 39.729 33.3652 35.076C33.3652 30.4229 37.1373 26.6509 41.7903 26.6509C46.4434 26.6509 50.2154 30.4229 50.2154 35.076Z" fill="#01080C"/>
<path fill-rule="evenodd" clip-rule="evenodd" d="M41.7903 41.5011C45.3388 41.5011 48.2154 38.6244 48.2154 35.076C48.2154 31.5275 45.3388 28.6509 41.7903 28.6509C38.2418 28.6509 35.3652 31.5275 35.3652 35.076C35.3652 38.6244 38.2418 41.5011 41.7903 41.5011ZM41.7903 43.5011C46.4434 43.5011 50.2154 39.729 50.2154 35.076C50.2154 30.4229 46.4434 26.6509 41.7903 26.6509C37.1373 26.6509 33.3652 30.4229 33.3652 35.076C33.3652 39.729 37.1373 43.5011 41.7903 43.5011Z" fill="#5F6E80"/>
<path d="M44.399 35.076C44.399 36.517 43.2308 37.6851 41.7898 37.6851C40.3488 37.6851 39.1807 36.517 39.1807 35.076C39.1807 33.635 40.3488 32.4668 41.7898 32.4668C43.2308 32.4668 44.399 33.635 44.399 35.076Z" fill="#0077FF"/>
<path d="M64 56.0005C64 54.3436 65.3431 53.0005 67 53.0005C68.6569 53.0005 70 54.3436 70 56.0005C70 57.6573 68.6569 59.0005 67 59.0005C65.3431 59.0005 64 57.6573 64 56.0005Z" fill="#0077FF"/>
</svg>
