<?xml version="1.0" standalone="no"?>
<!DOCTYPE svg PUBLIC "-//W3C//DTD SVG 20010904//EN"
 "http://www.w3.org/TR/2001/REC-SVG-20010904/DTD/svg10.dtd">
<svg version="1.0" xmlns="http://www.w3.org/2000/svg"
 width="700.000000pt" height="700.000000pt" viewBox="0 0 700.000000 700.000000"
 preserveAspectRatio="xMidYMid meet">
<metadata>
Created by potrace 1.14, written by Peter Selinger 2001-2017
</metadata>
<g transform="translate(0.000000,700.000000) scale(0.100000,-0.100000)"
fill="#000000" stroke="none">
<path d="M3757 6764 c-1 -1 -47 -4 -103 -8 -55 -4 -109 -8 -120 -10 -10 -2
-48 -7 -84 -11 -36 -4 -72 -9 -80 -10 -50 -9 -106 -19 -110 -20 -3 -1 -32 -7
-65 -14 -341 -73 -708 -217 -1005 -394 -296 -176 -612 -441 -820 -687 -30 -36
-57 -67 -61 -70 -8 -7 -140 -187 -176 -240 -235 -346 -421 -797 -492 -1195 -6
-33 -13 -69 -15 -80 -3 -18 -8 -54 -21 -155 -19 -143 -24 -494 -11 -641 32
-345 117 -684 251 -1004 33 -79 138 -282 188 -365 29 -47 57 -93 62 -102 6
-10 28 -44 50 -75 412 -591 974 -1023 1635 -1255 142 -50 340 -106 440 -124
25 -4 47 -8 50 -9 3 -1 25 -5 50 -9 25 -5 54 -10 65 -12 11 -2 47 -7 80 -10
33 -4 63 -8 66 -10 12 -7 246 -18 379 -18 127 1 379 12 390 19 3 1 32 6 65 10
202 22 516 102 745 189 234 88 475 214 702 368 l86 59 -147 252 c-82 138 -200
340 -263 447 -63 107 -153 260 -200 340 -151 257 -250 425 -254 429 -2 2 -29
-20 -61 -48 -210 -188 -546 -339 -838 -378 -117 -16 -494 -7 -525 12 -3 2 -23
6 -45 9 -22 4 -53 11 -70 16 -319 97 -537 222 -740 425 -44 44 -96 100 -115
125 -19 25 -37 47 -40 50 -16 14 -105 159 -139 227 -60 117 -120 285 -137 377
-3 16 -6 32 -8 35 -2 3 -7 30 -10 59 -3 28 -9 76 -12 105 -3 28 -7 52 -7 53
-1 0 -73 37 -159 82 -529 272 -798 545 -709 720 11 22 35 52 53 65 35 26 110
66 137 73 9 2 43 11 76 19 33 9 78 18 100 21 22 3 67 9 100 14 51 8 553 6 654
-2 31 -3 39 2 69 42 259 339 645 564 1077 628 67 9 386 9 455 -1 96 -14 282
-65 372 -101 174 -70 311 -152 446 -266 41 -34 75 -60 76 -58 23 35 43 67 51
83 6 11 112 191 235 400 123 209 231 394 240 410 26 44 210 355 231 390 11 17
22 37 26 45 3 8 21 39 40 68 18 29 33 58 33 65 0 7 -37 37 -82 67 -46 30 -85
57 -88 61 -9 10 -215 125 -305 171 -250 128 -594 244 -864 293 -42 8 -85 16
-96 18 -11 3 -47 8 -80 12 -32 4 -67 9 -77 10 -57 11 -530 28 -541 19z"/>
<path d="M5529 3508 c-5 -311 -76 -568 -228 -820 -28 -47 -51 -87 -51 -89 0
-2 17 -4 38 -5 20 -1 75 -4 122 -8 88 -6 369 -7 453 -1 170 12 307 41 400 84
96 45 142 96 150 167 11 103 -67 220 -243 366 -51 42 -264 188 -274 188 -2 0
-39 20 -81 45 -74 44 -269 145 -280 145 -3 0 -5 -33 -6 -72z"/>
</g>
</svg>
